<svg width="272" height="58" viewBox="0 0 272 58" fill='none' xmlns="http://www.w3.org/2000/svg">
<path d="M145.643 55.8149C147.803 55.8149 149.189 55.7633 148.769 55.7117C148.032 55.6171 148.032 55.6171 148.666 55.5913C149.175 55.5913 149.241 55.5483 148.99 55.4366C148.74 55.3248 149.204 55.3076 150.502 55.3162C155.154 55.3162 160.905 55.2646 160.322 55.17C159.968 55.1184 158.56 55.1012 157.189 55.17C154.365 55.2388 149.565 55.0067 149.455 54.8003C148.599 54.6491 147.732 54.5972 146.867 54.6456C144.736 54.6456 144.53 54.6456 145.532 54.5252C147.654 54.3832 149.781 54.3832 151.903 54.5252C153.43 54.7409 154.965 54.8643 156.503 54.8949C156.702 54.8949 156.09 54.7831 155.139 54.6886C154.188 54.594 152.625 54.4392 151.659 54.3275C150.693 54.2157 149.388 54.1039 148.747 54.0781C147.759 54.0781 146.299 53.7428 146.941 53.7084C148.879 53.6492 150.818 53.7124 152.75 53.8976C153.119 53.9921 154.048 54.1469 154.815 54.2415C155.582 54.336 156.636 54.465 157.137 54.5338C158.243 54.6885 165.203 55.1786 167.769 55.2818C168.763 55.4094 169.767 55.4094 170.762 55.2818C170.821 55.2818 170.592 55.213 170.239 55.2216C169.356 55.2599 168.474 55.144 167.621 54.8777C167.289 54.7401 167.12 54.7229 167.12 54.8261C167.12 54.9293 166.795 54.9551 165.984 54.8863C165.365 54.8347 164.687 54.7917 164.51 54.7917C164.333 54.7917 164.193 54.7229 164.259 54.6112C164.326 54.4994 164.901 54.4392 166.891 54.4822C168.277 54.4822 169.752 54.5682 170.165 54.6112C170.718 54.6628 170.836 54.6112 170.6 54.5424C170.15 54.3532 171.44 54.3532 172.244 54.5424C172.576 54.6198 173.866 54.7401 175.119 54.8089C176.373 54.8777 180.162 55.084 183.546 55.2732C191.605 55.7289 195.21 55.8922 196.928 55.875C199.28 55.875 197.518 55.6515 194.104 55.5397C192.445 55.4881 191.155 55.4108 191.207 55.3764C191.258 55.342 192.681 55.3076 194.281 55.3162C196.803 55.3162 197.142 55.3162 196.493 55.1614C195.358 54.9293 195.085 54.8003 195.446 54.6542C195.638 54.5768 195.446 54.5338 194.871 54.5338C194.296 54.5338 193.625 54.465 193.146 54.3962C192.667 54.3275 190.875 54.1985 189.157 54.1211C187.439 54.0437 185.876 53.9491 185.699 53.9062C185.271 53.8502 184.84 53.833 184.409 53.8546C183.871 53.8546 183.51 53.8546 183.598 53.7772C185.879 53.5613 188.168 53.501 190.455 53.5966C190.898 53.6662 191.346 53.6662 191.789 53.5966C192.526 53.4247 188.899 53.2699 184.947 53.2957C180.214 53.2957 172.952 53.1668 173.092 53.0292C173.642 52.918 174.2 52.8747 174.758 52.9002C175.834 52.9002 176.233 52.8572 175.967 52.7713C175.648 52.6872 175.321 52.6468 174.994 52.6509C173.239 52.7329 171.481 52.6898 169.73 52.5219C169 52.3697 168.259 52.2977 167.518 52.307C166.302 52.2554 164.768 52.1952 164.119 52.1608C163.47 52.1264 161.089 52.0405 158.833 51.9631C156.577 51.8857 153.561 51.7653 152.138 51.6966C150.716 51.6278 148.187 51.5332 146.528 51.4816C145.41 51.4781 144.292 51.4063 143.181 51.2667C142.967 51.1807 143.66 51.1549 145.23 51.2065C146.535 51.2065 150.686 51.3182 154.439 51.3698C160.027 51.4472 161.406 51.4214 161.996 51.2753C162.733 51.0775 169.7 51.0173 173.291 51.1893C174.242 51.2323 177.014 51.3354 179.447 51.43C182.846 51.5504 183.959 51.6364 184.262 51.7997C184.564 51.9631 184.704 51.9631 184.8 51.8685C184.896 51.7739 186.385 51.5418 186.223 51.7051C186.061 51.8685 186.591 51.8169 187.189 51.8169C187.58 51.8716 187.977 51.8156 188.346 51.6536C188.42 51.5246 188.553 51.5246 188.958 51.6536L189.481 51.8083L188.943 51.8083C188.616 51.8245 188.291 51.8705 187.97 51.9459C187.697 52.0233 188.412 52.0662 189.983 52.0748C190.756 52.138 191.533 52.0977 192.298 51.9545C193.23 51.8494 194.17 51.8928 195.092 52.0834C195.328 52.1436 197.304 52.2382 199.413 52.2898C204.986 52.4187 208.4 52.5649 207.397 52.6165C206.535 52.5907 206.535 52.5907 207.272 52.6767C207.597 52.7169 207.926 52.6936 208.245 52.6079C209.192 52.5244 210.143 52.5101 211.091 52.5649L213.679 52.6423L211.954 52.7197C210.796 52.7713 211.548 52.8057 214.217 52.8056C216.672 52.8056 217.962 52.8057 217.564 52.7025C217.166 52.5993 217.299 52.6079 218.213 52.6509C218.95 52.6509 221.258 52.7455 223.374 52.7885C230.806 52.9174 232.221 52.9604 233.622 53.0894C234.359 53.1582 235.222 53.2183 235.458 53.2183C235.694 53.2183 236.475 53.2871 237.183 53.3731C237.891 53.4591 239.211 53.5536 240.095 53.5966C240.98 53.6396 241.784 53.7084 241.872 53.7428C242.13 53.8374 247.527 54.1727 250.565 54.2759C252.106 54.3275 253.47 54.4134 253.588 54.465C254.962 54.6664 256.351 54.6952 257.731 54.551C257.731 54.465 257.974 54.379 258.328 54.3532L258.962 54.3102L258.225 54.7831C257.016 55.5655 256.559 55.6429 254.082 55.6429C251.346 55.6429 245.478 55.3248 245.234 55.2388C245.146 55.2388 244.357 55.1528 243.494 55.1184C242.632 55.084 241.341 55.0325 240.626 54.9895C239.911 54.9465 238.894 54.8777 238.363 54.8433C237.832 54.8089 236.807 54.7487 236.092 54.7058C232.406 54.4822 226.906 54.3103 225.984 54.3962C225.464 54.4602 224.941 54.4602 224.421 54.3962C223.44 54.3045 222.455 54.2816 221.472 54.3274C220.137 54.3274 218.655 54.3274 218.184 54.2673C217.712 54.2071 215.522 54.1297 213.325 54.0867C210.767 54.0867 209.948 54.0867 211.054 54.0867C214.696 54.3103 220.742 54.508 225.306 54.5596C229.729 54.6026 232.745 54.7229 238.038 55.0411C239.225 55.1184 240.508 55.1786 240.884 55.1786C241.17 55.1598 241.456 55.2096 241.725 55.3248C241.835 55.4365 241.437 55.4623 240.25 55.4022C239.373 55.3506 237.441 55.2904 235.959 55.256C232.76 55.1786 234.168 55.3678 237.965 55.5225C240.177 55.6171 240.648 55.7375 239.439 55.9008C239.144 55.9438 239.439 55.9438 240.088 55.9008C240.737 55.8578 241.747 55.8063 242.3 55.7805C243.406 55.7203 243.951 55.5741 243.037 55.5655C242.58 55.5655 242.565 55.5655 242.89 55.428C243.214 55.2904 245.795 55.385 251 55.7375C252.902 55.8664 253.212 55.918 253.212 56.133C253.212 56.3479 252.423 56.7004 251.56 56.6144C251.162 56.6144 250.823 56.6144 250.823 56.666C250.823 56.7176 251.132 56.795 251.523 56.795C251.856 56.7863 252.188 56.8268 252.511 56.9154C253.669 56.9864 254.829 56.8235 255.939 56.4339C257.053 56.09 257.2 56.0814 259.198 56.1845C260.348 56.2447 261.653 56.2963 262.103 56.3049C262.553 56.3135 262.877 56.3651 262.84 56.4855C262.803 56.6058 262.84 56.6574 262.892 56.666C269.684 57.0455 268.892 56.4828 265.362 56.2189C264.625 56.176 263.231 56.1244 262.339 56.1158C260.599 56.1158 260.186 56.0298 260.643 55.8406C260.82 55.7719 260.533 55.7547 259.906 55.8406C259.453 55.9044 258.995 55.9044 258.542 55.8406C258.218 55.7289 258.321 55.5999 259.279 54.8519L260.422 53.9921L261.941 54.0695C263.371 54.1383 263.415 54.1383 262.612 53.9835L261.757 53.8202L262.663 53.631C263.629 53.4247 263.814 53.2699 263.202 53.1668C262.984 53.13 264.027 52.8017 264.027 52.7541C264.027 52.5993 263.895 52.5821 263.548 52.6595C262.958 52.7764 262.354 52.7764 261.764 52.6595C260.592 52.5563 257.996 52.4617 256.087 52.4531C255.092 52.4531 254.561 52.4015 254.612 52.3156C254.664 52.2296 254.568 52.178 254.354 52.1694C254.141 52.1608 254.074 52.1694 254.472 52.0319C255.621 51.9421 256.774 51.9421 257.923 52.0319L265.458 52.049C264.912 51.9803 264.72 51.8943 264.794 51.7653C264.971 51.4816 264.374 51.4042 263.32 51.5762C262.615 51.6735 261.906 51.7195 261.196 51.7137C260.54 51.7137 259.493 51.7137 258.866 51.7137C258.487 51.7486 258.105 51.705 257.738 51.5848C257.738 51.5246 257.871 51.473 258.033 51.473C258.109 51.4781 258.185 51.4646 258.256 51.4335C258.327 51.4024 258.392 51.3544 258.446 51.2925C258.867 51.0946 259.313 50.9784 259.766 50.9485C260.181 50.9283 260.589 50.8266 260.975 50.6476C262.415 50.5442 263.861 50.5816 265.296 50.7594L265.296 50.9314L264.558 51.0259L265.436 51.0259L262.206 50.4155C260.673 50.4155 260.54 50.4155 260.909 50.2091C261.755 50.0126 262.619 49.9347 263.482 49.977L265.642 49.977L263.511 49.9254C261.69 49.9254 261.41 49.8566 261.521 49.6675C261.631 49.4783 261.565 49.4783 261.27 49.5643C260.824 49.6486 260.373 49.6974 259.921 49.7105L258.948 49.7105L259.685 49.5471C260.968 49.272 261.734 48.9797 261.734 48.7905C261.734 48.6014 262.192 48.5154 262.804 48.4036C263.696 48.2403 263.814 48.1801 263.497 48.0769C263.152 47.9815 262.794 47.9815 262.45 48.0769C261.417 48.3004 260.334 48.2661 260.334 48.0081C260.334 47.7502 260.216 47.819 259.965 47.8792C259.132 48.0769 256.279 48.4896 255.21 48.567C254.281 48.6272 254.104 48.567 254.2 48.4466C254.772 48.0825 255.406 47.8683 256.057 47.819C256.25 47.8136 256.439 47.7578 256.61 47.6556C257.136 47.487 257.674 47.3776 258.218 47.3289L259.582 47.1655L258.107 47.1226C257.274 47.1226 256.301 47.1226 255.947 47.071C255.593 47.0194 255.298 46.985 255.298 46.8646C255.298 46.7443 255.652 46.6411 256.485 46.5895L257.672 46.5121L256.596 46.4519C255.681 46.4003 255.504 46.3488 255.446 46.0908L255.379 45.7985L258.741 45.8673C262.103 45.9275 263.659 45.7985 261.558 45.618C260.968 45.618 260.194 45.489 259.832 45.446L259.184 45.36L259.832 45.575C260.466 45.7813 260.452 45.7813 259.095 45.7211C258.321 45.7211 256.883 45.6008 255.903 45.5148C255.227 45.4324 254.546 45.4123 253.868 45.4546C253.735 45.5062 253.691 45.4546 253.757 45.4546C253.823 45.4546 253.248 45.274 250.808 45.2826C249.975 45.2826 248.515 45.2225 247.564 45.1451C246.613 45.0677 245.256 44.9645 244.549 44.9215L243.251 44.827L244.224 44.6636C244.755 44.569 245.618 44.3885 246.141 44.2681C246.855 44.127 247.577 44.0494 248.301 44.036C249.193 44.036 249.348 44.036 248.884 43.9328L248.264 43.8468L249.002 43.6749C249.455 43.5459 249.928 43.5459 250.38 43.6749L251 43.8296L250.351 43.9242C249.85 43.993 250.086 44.036 251.435 44.1306C252.378 44.1993 253.307 44.2423 253.484 44.2337C253.661 44.2251 255.121 44.2939 256.721 44.3971C261.145 44.6722 263.297 44.7582 263.135 44.655C262.285 44.507 261.429 44.4123 260.57 44.3713C259.655 44.3273 258.743 44.2124 257.842 44.0274C257.147 43.8737 256.439 43.816 255.733 43.8554C255.086 43.8686 254.438 43.837 253.794 43.7608C253.72 43.7093 254.03 43.5459 254.487 43.3997C254.944 43.2536 255.468 43.0472 255.645 42.9699C255.984 42.8065 256.021 42.8065 254.133 43.116C253.398 43.2109 252.656 43.2109 251.921 43.116C251.348 42.9765 250.755 42.9765 250.181 43.116C249.724 43.2306 249.252 43.2539 248.788 43.1848C248.031 43.128 247.271 43.1771 246.524 43.331C244.961 43.6405 243.863 43.5803 243.885 43.1848C243.885 42.9699 243.745 42.8667 243.295 42.8151C242.984 42.7715 242.67 42.7715 242.359 42.8151C241.599 42.8988 240.832 42.8231 240.095 42.5916C240.095 42.5142 240.412 42.454 240.833 42.4368L241.533 42.4368L240.796 42.3766C240.456 42.3685 240.123 42.259 239.83 42.0585C239.483 41.7146 239.181 41.7318 238.208 42.1359C237.397 42.4712 237.39 42.4712 234.861 42.3164C232.973 42.2047 232.332 42.1101 232.332 41.9725C232.332 41.835 233.747 41.3707 234.544 41.4481C234.92 41.491 236.055 41.5512 237.065 41.6028C238.075 41.6544 240.213 41.7404 241.813 41.8092C243.413 41.878 244.925 41.9467 245.161 41.9467C246.719 41.9775 248.272 42.1819 249.798 42.5572C250.431 42.7696 251.086 42.8738 251.744 42.8667C252.688 42.8667 252.695 42.8667 251.958 42.7635C251.221 42.6603 251.221 42.6775 252.504 42.5056C253.912 42.3164 256.463 42.2648 261.786 42.3164C264.477 42.3164 265.384 42.3164 265.856 42.1531L266.46 41.9553L265.848 41.8779C265.509 41.8779 264.706 41.7662 264.05 41.7232C262.11 41.5856 261.934 41.5254 262.73 41.2847C263.85 40.9408 263.57 40.8978 259.626 40.7774C258.557 40.7774 257.016 40.7173 256.198 40.7173C254.959 40.7173 254.76 40.6743 254.966 40.5195C255.173 40.3648 255.084 40.3218 254.531 40.2702C253.97 40.2415 253.409 40.2616 252.85 40.3304C251.512 40.4092 250.171 40.4092 248.832 40.3304C247.173 40.2616 244.408 40.1584 242.735 40.1068C241.72 40.0503 240.71 39.9125 239.712 39.6941C239.712 39.6253 239.904 39.5738 240.147 39.5738C240.39 39.5738 240.575 39.505 240.575 39.4276C240.575 39.3502 240.818 39.1353 241.106 38.9547C241.688 38.5936 241.681 38.585 240.545 38.6194C240.223 38.6524 239.898 38.6025 239.594 38.4733C239.277 38.1465 253.271 38.6968 255.04 39.0837C255.519 39.1869 255.903 39.2127 255.903 39.1353C255.903 39.0579 256.072 39.0407 256.279 39.0751C256.765 39.1611 259.751 39.3072 259.464 39.2384C259.346 39.2384 258.675 39.1095 257.989 39.0235C257.163 38.9203 256.817 38.8258 257.009 38.7484C257.2 38.671 256.691 38.671 255.954 38.7484C255.217 38.8258 254.62 38.7484 254.62 38.6882C254.141 38.5286 253.644 38.4533 253.145 38.4647C252.342 38.4217 250.72 38.3185 249.533 38.2411C248.346 38.1637 245.625 38.052 243.487 38.0004C241.349 37.9488 239.395 37.8198 239.152 37.7424C238.599 37.6291 238.036 37.6031 237.478 37.6651C236.741 37.7167 236.254 37.6651 236.254 37.6049C236.254 37.5447 237.294 37.304 238.709 37.2954C239.321 37.2954 240.036 37.2954 240.302 37.218C240.825 37.1234 240.958 36.8225 240.523 36.7107C240.317 36.6591 240.331 36.6075 240.575 36.4872C240.818 36.3668 240.575 36.341 239.388 36.3582C238.555 36.3582 237.537 36.3582 237.124 36.3582C236.387 36.3582 236.387 36.3582 236.8 36.1175C237.213 35.8767 237.168 35.9111 236.21 35.9971C234.912 36.1089 227.4 36.1089 227.215 35.9971C227.141 35.9455 227.473 35.6962 227.952 35.4383C228.413 35.1142 228.952 34.9752 229.486 35.0428C229.855 35.0943 231.359 35.1287 232.833 35.1287C234.308 35.1287 236.918 35.1803 238.643 35.2577C240.368 35.3351 243.62 35.4555 245.868 35.5328C249.999 35.6193 254.123 35.9522 258.225 36.5302C258.498 36.5818 258.712 36.5732 258.712 36.5302C258.134 36.3235 257.538 36.1965 256.935 36.1519L255.158 35.9025L256.234 35.7478C257.2 35.6102 256.972 35.593 254.023 35.5758C252.579 35.6354 251.134 35.5548 249.702 35.3351C247.818 35.0794 245.921 34.9903 244.025 35.0685C241.474 35.0685 238.864 34.9654 238.193 34.9052C237.522 34.845 237.213 34.7762 237.456 34.7676C237.713 34.7559 237.964 34.6796 238.193 34.5441C238.361 34.4243 238.55 34.3535 238.746 34.3378C238.868 34.3511 238.991 34.3147 239.093 34.2346C240.415 33.8186 241.767 33.5509 243.133 33.435C243.552 33.4256 243.968 33.3562 244.372 33.2286C244.609 33.1363 244.859 33.0983 245.109 33.1169C245.359 33.1369 245.61 33.0959 245.846 32.9965C246.567 32.7685 247.321 32.7216 248.058 32.8589C248.736 33.0309 256.102 33.7961 256.802 33.7789C257.06 33.7789 256.692 33.6843 255.976 33.5811C255.261 33.478 254.391 33.3404 254.037 33.263L253.389 33.1341L254.037 33.1341C254.598 33.1341 254.627 33.1341 254.251 32.9965C253.931 32.92 253.605 32.8768 253.278 32.8675C252.843 32.8675 252.799 32.8675 253.064 33.0051C253.33 33.1427 252.88 33.1169 250.734 32.773L249.378 32.5494L250.115 32.1625C250.491 31.9794 250.832 31.7104 251.118 31.3715C251.236 31.1708 251.411 31.0248 251.612 30.9588C251.737 30.9588 251.73 30.8901 251.612 30.7783C251.051 30.3484 252.017 30.3742 253.647 30.8299C254.133 30.9694 254.625 31.0785 255.121 31.1566C255.755 31.234 255.615 31.1566 254.583 30.933C254.155 30.8299 254.111 30.7869 254.369 30.6837C254.627 30.5805 254.561 30.5547 254.148 30.5547C253.675 30.513 253.207 30.4238 252.747 30.2882L251.884 30.0303L252.533 30.0303C253.002 30.0332 253.47 30.0764 253.934 30.1593C255.432 30.4419 256.944 30.6142 258.461 30.6751C258.461 30.6063 258.704 30.5634 259.007 30.5634C259.67 30.5634 259.744 30.3484 259.066 30.2452C258.114 30.0819 258.83 30.0389 260.407 30.1593C261.299 30.228 263.968 30.3828 266.342 30.4946C268.716 30.6063 270.899 30.7439 271.201 30.7783C271.732 30.8385 271.732 30.8385 271.142 30.6235C270.338 30.3398 270.405 30.1421 271.253 30.2366C272.536 30.3914 271.761 30.185 270.014 29.9013C268.207 29.5924 266.384 29.4229 264.558 29.3941C264.492 29.437 264.639 29.4714 264.89 29.4714C265.738 29.4714 265.627 29.7466 264.794 29.7638L263.968 29.7638L264.831 29.8497C263.754 29.9446 262.672 29.9446 261.594 29.8497C259.466 29.9027 257.337 29.7734 255.224 29.4628C254.38 29.3675 253.544 29.1892 252.725 28.9298C252.165 28.7194 251.586 28.5867 251 28.5343C250.209 28.4302 249.424 28.2752 248.648 28.07C247.489 27.6923 246.29 27.5127 245.087 27.5369C244.313 27.5369 244.114 27.537 244.055 27.3478C243.996 27.1587 244.401 27.0383 246.163 27.3478C247.089 27.5102 248.022 27.6049 248.957 27.6315C249.534 27.6226 250.111 27.6628 250.683 27.7519C252.038 28.1668 253.412 28.4998 254.797 28.7492C255.645 28.8438 255.46 28.7492 253.58 28.2935C252.636 28.0442 252.445 27.9324 252.334 27.5713C252.236 27.274 252.088 27.0022 251.899 26.7718L251.59 26.3935L252.437 26.3935C253.494 26.4662 254.548 26.601 255.593 26.7975C257.871 27.2016 259.279 27.322 259.029 27.0899C258.705 26.9661 258.367 26.8966 258.026 26.8835C257.293 26.8042 256.573 26.6045 255.888 26.2903C255.829 26.2903 255.888 26.2043 256.028 26.1527C256.168 26.1011 255.777 26.041 255.173 26.0238C254.474 25.9951 253.778 25.9204 253.086 25.8002C252.128 25.6025 248.095 25.0952 246.628 24.9834C245.772 24.9147 245.374 24.6223 245.89 24.4418C246.131 24.3582 246.387 24.3582 246.628 24.4418C247.166 24.6567 247.461 24.6395 247.461 24.3902C247.461 24.2784 247.269 24.1924 247.026 24.1924C246.783 24.1924 246.598 24.0979 246.598 23.9861C246.598 23.8743 246.908 23.7969 248.338 23.8485C250.403 23.9259 254.804 24.1752 255.136 24.244C255.386 24.2459 255.636 24.1994 255.873 24.1065C256.293 23.9603 256.323 23.9259 256.013 23.9173C255.704 23.9087 255.645 23.8399 255.667 23.7454C255.74 23.3671 255.63 23.2381 255.217 23.2381C254.804 23.2381 254.605 23.711 255.055 23.8313C254.39 23.884 253.722 23.884 253.057 23.8313C251.811 23.7797 249.746 23.7368 248.471 23.7368C246.694 23.7368 246.171 23.7368 246.259 23.5734C246.348 23.41 246.141 23.4014 245.721 23.4014C245.301 23.4014 245.079 23.3327 245.079 23.1951C245.082 23.1657 245.09 23.1372 245.102 23.1112C245.114 23.0853 245.131 23.0625 245.151 23.0441C245.171 23.0257 245.194 23.0121 245.218 23.0041C245.242 22.9961 245.268 22.9938 245.293 22.9973C245.706 22.9973 245.507 22.5933 244.932 22.258C244.608 22.0688 244.394 21.8883 244.445 21.8539C244.869 21.7394 245.297 21.6504 245.728 21.5873L246.915 21.381L245.234 21.424C244.636 21.4685 244.036 21.4426 243.443 21.3466C243.384 21.2864 243.509 21.2692 243.723 21.3466C243.937 21.424 244.018 21.3466 243.627 21.1317C243.089 20.8049 243.045 20.676 243.347 20.3149C243.649 19.9538 243.03 19.8678 240.825 19.3519C240.565 19.3283 240.312 19.2341 240.088 19.0768C240.088 19.0166 239.874 18.9392 239.609 18.8962C239.343 18.8533 239.749 18.8962 240.516 18.8962C241.119 18.9149 241.72 18.9838 242.315 19.1026C243.052 19.3519 243.111 19.0338 242.455 18.3718L241.821 17.727L242.521 17.727L243.221 17.727L242.484 17.5636C241.542 17.3743 240.63 17.0207 239.778 16.5147L239.366 16.2224L240.228 16.3083C241.201 16.4029 242.897 16.4631 249.724 16.6694C252.334 16.7468 254.62 16.8328 254.797 16.8672C254.974 16.9016 256.035 16.9532 257.149 16.9962C258.262 17.0391 259.567 17.1337 260.031 17.2111C260.391 17.3002 260.763 17.3002 261.123 17.2111C261.416 17.1001 261.721 17.0336 262.029 17.0133C262.604 16.9617 262.59 16.9532 261.852 16.936C261.403 16.936 260.334 16.8328 259.478 16.721C257.657 16.4975 249.223 16.0934 246.488 16.0934C245.75 16.0934 243.656 15.9988 241.784 15.8956C238.267 15.6893 237.758 15.5947 236.733 14.9241C236.493 14.7621 236.227 14.6569 235.952 14.6146C235.419 14.5301 234.892 14.4037 234.374 14.2363C233.305 13.9268 233.195 13.858 233.637 13.8236C234.703 13.9073 235.754 14.1708 236.756 14.606C236.988 14.719 237.242 14.7633 237.493 14.7349C237.943 14.7349 237.979 14.7349 237.64 14.649C237.306 14.5804 236.978 14.4769 236.66 14.3395C234.984 13.7135 233.252 13.3126 231.499 13.1444C230.53 13.0913 229.566 12.9505 228.616 12.7231C226.471 12.2502 225.534 12.19 218.574 12.1127C216.363 12.1127 212.978 12.0095 211.025 11.9235C203.062 11.5968 196.729 11.4764 185.22 11.4334C178.585 11.4334 172.207 11.3389 171.079 11.2959C169.951 11.2529 168.403 11.2185 167.629 11.2271C158.435 11.3905 128.339 11.1755 128.339 10.952C128.339 10.8746 128.221 10.866 128.074 10.952C127.052 11.057 126.025 11.1 124.999 11.0809C123.451 11.0809 120.782 11.1411 119.057 11.1927C112.628 11.3733 108.271 11.399 108.271 11.2615C108.271 11.1239 108.175 11.1583 108.064 11.2013C108.009 11.2226 107.95 11.2283 107.892 11.2178C107.834 11.2073 107.78 11.1811 107.732 11.1411C107.659 11.0637 107.777 11.0035 107.99 11.0035C108.291 10.9845 108.586 10.912 108.868 10.7886C109.178 10.6632 109.505 10.6021 109.834 10.6081C110.178 10.6174 110.522 10.577 110.858 10.4877C113.428 10.1333 116.013 9.96101 118.6 9.97181C120.663 10.142 122.734 10.1736 124.8 10.0664C124.668 9.92883 128.037 9.76548 130.824 9.77408C132.203 9.77408 132.674 9.77406 132.446 9.64509C131.888 9.53334 131.323 9.48728 130.757 9.50755C130.342 9.55775 129.922 9.51692 129.519 9.38717C129.585 9.31839 129.445 9.23241 129.217 9.19802C128.988 9.16363 128.767 9.19802 128.73 9.2496C128.693 9.30119 118.239 9.43875 118.054 9.32698C117.87 9.21521 123.385 9.03466 128.376 9.03466C131.325 9.03466 133.655 8.98308 133.596 8.93149C133.537 8.8799 133.795 8.86271 134.156 8.93149C134.518 9.00027 134.812 8.9315 134.812 8.86272C134.812 8.79394 134.51 8.64778 134.075 8.69936C133.338 8.77674 122.883 8.77674 122.802 8.69936C122.559 8.45003 128.7 8.1061 133.073 8.1147C136.84 8.1147 136.847 8.11469 134.908 7.97713L132.969 7.82238L134.739 7.71921C135.712 7.65903 137.607 7.61605 138.949 7.62465C141.78 7.62465 143.778 7.50427 143.107 7.34951C142.174 7.29089 141.238 7.29089 140.305 7.34951C139 7.34951 134.835 7.34951 131.052 7.34951C124.358 7.25494 124.166 7.24634 124.056 6.97121C123.945 6.69609 123.938 6.69609 123.761 6.97121C123.719 7.05354 123.655 7.11802 123.58 7.15517C123.504 7.19231 123.42 7.20015 123.34 7.17755C123.277 7.15243 123.21 7.14404 123.144 7.15296C123.077 7.16189 123.014 7.18789 122.957 7.22913C121.37 7.42743 119.773 7.47344 118.18 7.3667C118.18 7.30652 118.379 7.25493 118.615 7.25493C118.85 7.25493 119.042 7.19475 119.042 7.12596C119.042 7.05718 119.381 6.9884 119.779 6.9884C120.077 7.01196 120.375 6.96516 120.657 6.85083C120.738 6.76486 120.546 6.70468 120.185 6.70468C119.824 6.70468 119.138 6.70468 118.607 6.70468C118.076 6.70468 116.86 6.70468 115.909 6.78206C114.781 6.85084 114.331 6.84225 114.611 6.78206C114.891 6.72188 114.987 6.65309 114.442 6.6445C114.095 6.6445 113.889 6.6875 113.962 6.76488C114.036 6.84226 112.82 6.76487 112.584 6.67889C112.2 6.47255 113.424 6.37796 117.31 6.29199C120.133 6.2318 120.399 6.2404 120.023 6.42955C119.647 6.6187 119.639 6.63589 120.296 6.63589C120.672 6.63589 120.981 6.57571 120.981 6.50693C120.981 6.30058 123.046 6.18022 123.606 6.35218C124.166 6.52413 124.093 6.49834 123.694 6.30059C123.296 6.10285 123.399 6.08565 124.992 6.08565C126.172 6.08565 126.607 6.12864 126.378 6.22322C126.15 6.31779 126.194 6.35218 126.658 6.36078C127.123 6.36938 127.211 6.30058 127.123 6.206C127.034 6.11143 127.123 6.11143 127.44 6.206C127.66 6.29168 127.895 6.31526 128.125 6.2748C129.193 6.11597 130.273 6.11597 131.34 6.2748C132.726 6.41236 132.733 6.42095 132.077 6.59291C131.281 6.80785 131.878 6.82505 132.814 6.59291C133.323 6.48114 133.434 6.41236 133.22 6.32638C133.006 6.24041 133.272 6.19742 133.906 6.18882L134.879 6.18882L134.009 6.10283C132.276 5.93948 134.119 5.79331 139.089 5.69874C143.711 5.62136 143.837 5.61276 141.75 5.50959C140.541 5.4494 135.904 5.44081 131.428 5.50959C120.244 5.63855 117.052 5.38923 125.361 5.03673C128.509 4.90776 129.784 4.77879 128.487 4.7358C128.199 4.7358 127.337 4.73579 126.577 4.67561C126.013 4.6181 125.444 4.65575 124.889 4.78738C124.66 4.89915 124.542 4.89915 124.432 4.78738C123.998 4.61953 123.53 4.61953 123.097 4.78738C122.745 4.8953 122.384 4.95587 122.021 4.96793C121.328 5.01951 121.173 4.96793 121.49 4.91635C121.807 4.86476 121.866 4.7874 121.335 4.7788C120.804 4.77021 120.34 4.96793 120.782 5.0797C120.93 5.0797 120.738 5.15709 120.355 5.16569C119.669 5.16569 119.389 4.97653 119.92 4.86476C120.074 4.86476 120.001 4.86476 119.757 4.86476C119.083 4.97756 118.396 4.94846 117.73 4.7788C117.495 4.67659 117.243 4.6355 116.993 4.65842C116.668 4.65842 116.462 4.7186 116.528 4.78738C116.685 4.87134 116.86 4.89543 117.029 4.85618C117.295 4.8334 117.561 4.87738 117.811 4.98514C118.187 5.16569 118.15 5.17428 117.361 5.10549C116.889 5.10549 116.174 4.99372 115.769 4.94214C115.201 4.87336 115.076 4.89916 115.208 5.03673C115.341 5.17429 115.282 5.18289 115.009 5.12271C114.52 5.04859 114.028 5.01125 113.535 5.01094C112.237 5.01094 112.503 4.94215 114.53 4.82178C116.904 4.68422 115.968 4.48647 112.79 4.46927C110.239 4.46927 110.055 4.46927 111.448 4.3575C112.34 4.3575 113.837 4.3575 114.781 4.3575C115.724 4.3575 116.55 4.43488 116.617 4.40908C117.76 4.2604 118.911 4.22016 120.06 4.28873C121.182 4.35656 122.307 4.35656 123.429 4.28873C125.213 4.23714 127.853 4.18556 129.327 4.15977C131.244 4.15977 131.591 4.09957 130.522 4.06518C129.452 4.03079 129.128 3.9792 129.32 3.90182C129.88 3.68688 128.066 3.58371 124.896 3.66109C122.471 3.72127 117.147 3.60091 118.261 3.51494C118.843 3.46335 118.489 3.22259 117.885 3.24839C117.523 3.24839 117.236 3.36017 117.236 3.45475C117.236 3.54932 116.735 3.63529 115.348 3.63529C114.309 3.63529 112.679 3.67828 111.728 3.71267C110.777 3.74706 110.114 3.71266 110.291 3.65248C110.468 3.5923 110.512 3.51492 110.224 3.44614C109.716 3.32578 109.421 3.33437 109.561 3.44614C109.701 3.55791 109.561 3.6267 109.406 3.69548C108.941 3.91902 102.771 4.28011 98.8851 4.29731C97.7275 4.29731 97.7202 4.29731 98.5607 4.40908L99.4233 4.51225L98.686 4.55526C98.2731 4.55526 96.1793 4.60685 94.0412 4.61545C91.1658 4.61545 90.1041 4.57245 89.9419 4.44348C89.5599 4.28464 89.16 4.19194 88.7549 4.16835L87.7817 4.05658L89.2562 3.96201C90.0525 3.91043 90.8709 3.82445 91.0699 3.77286C91.269 3.72127 91.3796 3.77287 91.2911 3.83305C91.2027 3.89323 91.4017 4.0222 91.7925 4.07379C93.6582 4.21862 95.5301 4.21862 97.3958 4.07379C97.698 3.99641 98.4279 3.88462 99.0251 3.81584C99.6223 3.74706 100.883 3.6095 101.834 3.50633C102.785 3.40316 104.82 3.27418 106.368 3.22259C108.752 3.15171 111.13 2.92208 113.49 2.53479C114.228 2.42301 115.061 2.31126 115.407 2.27687C116.078 2.19949 116.454 2.05332 115.953 2.06192C115.783 2.06192 115.017 2.16508 114.243 2.28544C113.468 2.40581 112.407 2.509 111.868 2.5176C111.499 2.50294 111.13 2.54631 110.77 2.64656C110.008 2.73187 109.242 2.75772 108.477 2.72394C107.246 2.72394 105.978 2.81851 105.661 2.8615C105.416 2.93678 105.158 2.91871 104.923 2.80992C104.842 2.72394 104.813 2.65517 104.85 2.65517C104.886 2.65517 105.395 2.65516 105.985 2.56919C106.546 2.53807 107.103 2.45177 107.651 2.31124C108.135 2.18523 108.63 2.1218 109.126 2.12209C109.477 2.14755 109.829 2.08602 110.158 1.94154C110.438 1.65782 114.007 1.3053 116.705 1.28811C117.689 1.30772 118.674 1.26755 119.654 1.16775C118.721 1.0552 117.781 1.03794 116.845 1.11617C113.726 1.16775 113.645 1.16774 114.692 0.969996C115.312 0.858424 115.938 0.789532 116.565 0.763659C116.888 0.78793 117.212 0.732259 117.516 0.600299C117.634 0.488528 117.332 0.462737 116.395 0.522921C115.658 0.574508 115.253 0.522921 115.452 0.522921C116.003 0.417777 116.56 0.354595 117.118 0.333773C117.855 0.290785 118.674 0.222007 118.954 0.179019C119.326 0.139057 119.701 0.162215 120.067 0.24779C120.348 0.330404 120.642 0.330404 120.922 0.24779C121.249 0.140053 121.586 0.076583 121.925 0.058638C121.243 -0.0195387 120.557 -0.0195386 119.875 0.0586381C118.327 0.0586382 116.484 0.179016 115.769 0.256396C115.054 0.333776 113.889 0.454131 113.181 0.514315C112.473 0.574499 111.249 0.746466 110.482 0.901225C109.716 1.05598 108.588 1.21073 107.998 1.26231C107.408 1.3139 106.044 1.44287 104.975 1.56324C103.906 1.68361 102.719 1.77818 102.328 1.77818C101.937 1.77818 101.672 1.82119 101.724 1.87277C101.93 2.07912 98.7745 2.35424 94.3508 2.50899C93.5859 2.50428 92.8219 2.56752 92.0653 2.69815C91.9547 2.76693 92.4044 2.79273 93.1491 2.75833C97.5064 2.56059 101.547 2.4574 101.731 2.52618C101.915 2.59496 96.3783 3.38595 95.6042 3.38595C95.4125 3.38595 95.501 3.29998 95.818 3.17961L96.3636 2.97328L95.818 3.05065C93.0749 3.38112 90.3135 3.453 87.5605 3.2656C84.5745 3.11944 83.8741 3.11944 83.7341 3.2656C83.594 3.41176 83.1442 3.42036 81.8687 3.35158C80.9324 3.30859 79.1998 3.2398 78.0128 3.20541C76.3244 3.16242 76.1033 3.20541 77.0027 3.2656C77.4378 3.2877 77.87 3.35969 78.293 3.48054C78.3741 3.53213 78.0054 3.48054 77.4746 3.48054C76.9437 3.48054 75.4913 3.37735 74.2527 3.38595C73.3521 3.40795 72.4512 3.37065 71.5543 3.2742C71.2667 3.20542 71.9229 3.16243 73.3385 3.16243C74.5623 3.16243 75.6166 3.16243 75.6683 3.10224C75.7199 3.04206 70.3746 2.8701 66.3565 2.80132C63.1419 2.74973 63.083 2.74114 63.4442 2.62077C63.8055 2.5004 68.008 2.19947 70.0281 2.18228C71.311 2.18228 71.4437 2.18228 70.8907 2.04471C70.2272 1.96093 69.5587 1.94367 68.8927 1.99313C68.4439 2.06986 67.987 2.0524 67.5435 1.94154C67.5435 1.70941 68.384 1.63203 69.8217 1.7266C70.2851 1.7779 70.7517 1.7779 71.2151 1.7266C70.8102 1.59946 70.3951 1.52168 69.9765 1.49447C68.9078 1.2612 67.8035 1.41728 66.8136 1.94154C66.4892 2.15649 66.3712 2.17368 66.2238 2.01892C66.0763 1.86416 65.9878 1.88136 65.8699 2.01892C64.7603 2.31992 63.625 2.4728 62.4858 2.4746C62.0213 2.4746 61.9107 2.47461 62.1245 2.35425C62.3383 2.23388 62.1245 2.19087 61.3872 2.0963C61.0113 2.03153 60.6318 1.99993 60.2518 2.00173C60.2076 2.00173 60.473 2.17367 60.8416 2.31124C61.2103 2.4488 61.4462 2.61218 61.3725 2.65517C61.2988 2.69816 61.4905 2.74973 61.8075 2.74973C62.1269 2.75044 62.4455 2.78788 62.7586 2.8615C64.0193 3.2484 64.4322 3.42896 64.4985 3.61811C64.5649 3.80726 64.3511 3.83304 63.5253 3.84163C59.1975 3.84163 55.2973 4.03939 51.7289 4.34031C50.8442 4.41769 50.5714 4.66702 50.9253 5.07971C51.1539 5.35483 51.1612 5.35485 51.6626 5.03673C52.1639 4.71861 52.4883 4.71001 54.6117 4.63263C55.9388 4.58965 57.3691 4.47788 57.782 4.3919C58.3535 4.30034 58.9311 4.27155 59.5072 4.30592C60.2191 4.34026 60.9322 4.29999 61.6379 4.18556C62.7217 3.99641 62.8028 4.00501 62.8986 4.23715C63.1013 4.48546 63.3551 4.66899 63.6359 4.7702C63.9824 4.93356 64.211 5.1313 64.1446 5.20009C63.6633 5.36537 63.1514 5.36537 62.6701 5.20009C62.4364 5.09063 62.1833 5.0493 61.9328 5.07971L61.3504 5.07971L61.9992 5.26028C62.8211 5.40836 63.6523 5.4745 64.4838 5.45801C65.4865 5.45801 66.7546 5.5096 67.2854 5.56978C68.266 5.66436 68.5093 5.87931 67.7794 6.00827C67.4722 6.07145 67.1709 6.16935 66.8799 6.3006C66.1943 6.61011 66.4818 6.86805 67.3887 6.76488C67.7047 6.68219 68.035 6.71831 68.3324 6.86805C68.5388 7.02281 68.0301 7.06578 65.1916 7.15176C62.2425 7.23774 61.7632 7.22055 61.5494 7.0314C61.2621 6.88261 60.9494 6.81204 60.6352 6.82504C60.3734 6.84446 60.1109 6.80657 59.8611 6.71329C59.4456 6.641 59.0232 6.641 58.6077 6.71329C57.9736 6.77348 56.9267 6.82505 56.2779 6.83365C55.7363 6.82162 55.1958 6.89391 54.6707 7.04859C54.3943 7.16876 54.1029 7.23555 53.808 7.24635C53.432 7.24635 53.4099 7.24634 53.6827 7.10018C53.9555 6.95401 53.9408 6.96262 53.6016 7.0314C53.3804 7.08299 52.2819 7.18615 51.1686 7.28072C50.0858 7.42379 48.9926 7.42379 47.9098 7.28072C47.3202 7.19381 46.7272 7.14216 46.133 7.12597C42.4206 7.23277 38.7062 7.04895 35.0149 6.57573C33.1183 6.28798 31.2058 6.16726 29.2936 6.21461C27.9739 6.31779 23.9042 7.50429 23.8968 7.78801C23.8894 8.07174 24.1548 8.01155 24.4424 7.78801C24.5603 7.71923 25.2312 7.46129 25.9169 7.22056C27.0934 6.80318 28.3243 6.63429 29.5517 6.72188C30.4121 6.63581 31.2781 6.66756 32.1321 6.81646C32.3091 6.91963 32.2132 6.96261 31.7783 6.96261C30.6902 7.01196 29.6261 7.35012 28.667 7.95134C27.6274 8.58757 27.4357 8.9315 28.2541 8.69076C28.5274 8.62352 28.7813 8.47549 28.9914 8.26087C29.3526 7.74501 30.9525 7.35813 32.7441 7.35813C37.2488 7.35813 38.8856 7.3581 39.0846 7.46987C39.5546 7.53034 40.0277 7.55046 40.5002 7.53006C41.4366 7.53006 41.6209 7.53007 41.326 7.64184C41.0311 7.75361 40.95 7.84819 40.95 7.91697C40.95 8.13191 41.5619 8.06312 41.7683 7.82238C41.9748 7.58165 42.3876 7.58166 43.6041 7.53867C45.0787 7.47848 45.2335 7.48708 45.1745 7.72782C45.1156 7.96856 44.9312 7.99435 44.7027 8.02014C44.4741 8.04593 43.4641 8.20927 42.4909 8.38123C41.5177 8.55318 40.1758 8.74234 39.5418 8.79393C38.0672 8.92289 36.4821 9.36998 36.342 9.6537C36.2019 9.93742 36.0323 9.91162 34.5946 9.91162C34.048 9.94206 33.5 9.9133 32.9579 9.82567C32.9579 9.78268 33.1275 9.66231 33.3339 9.55914C33.9016 9.29261 33.2676 9.31839 32.5229 9.60212C31.9773 9.79987 31.6308 9.80846 29.5738 9.67949C26.9196 9.52473 25.5925 9.61931 24.9953 10.0234C24.5972 10.2899 24.5972 10.2985 25.0617 10.3759C25.3271 10.4189 25.7473 10.4533 26.0054 10.4619C26.2583 10.4639 26.5086 10.5222 26.7427 10.6339C27.1039 10.8402 30.429 10.9434 35.8775 10.9004L39.9768 10.9004L39.3722 11.2357C38.6939 11.6054 38.4727 11.6226 36.836 11.4334C36.3835 11.3264 35.9171 11.3264 35.4646 11.4334C35.3245 11.528 35.4646 11.571 35.848 11.571C36.2314 11.571 36.3862 11.6226 36.3051 11.7086C36.0411 11.8209 35.7598 11.8677 35.4794 11.8461C35.1034 11.8461 32.3681 11.8461 29.3969 11.8891C27.1281 11.8147 24.8576 11.9094 22.5992 12.1728C20.7634 12.4823 17.3793 13.2218 17.4899 13.2905C17.6004 13.3593 18.6253 13.1358 19.9229 12.8865C22.9604 12.2932 23.8968 12.1986 23.8968 12.4824C23.8968 12.7661 24.0221 12.6629 24.376 12.6027C26.598 12.342 28.8346 12.296 31.0631 12.4651C32.3754 12.5597 33.5625 12.6027 33.7025 12.5683C33.9495 12.5499 34.1975 12.5702 34.4398 12.6285C34.8601 12.7317 34.6241 12.7833 33.1791 12.9208C31.4218 13.0697 29.6575 13.0697 27.9002 12.9208C24.5758 12.6413 21.2344 12.8726 17.9617 13.6087C15.1896 14.1847 14.1426 14.5372 14.1426 14.9069C14.1426 15.0703 14.2385 15.0703 14.8799 14.9069C15.5213 14.7436 15.6172 14.735 15.5066 14.9069C15.396 15.0789 15.5066 15.1562 16.5314 14.8295C16.9347 14.684 17.3553 14.6143 17.7774 14.6232C18.2692 14.6593 18.7629 14.642 19.2519 14.5716C19.6287 14.5176 20.0078 14.4889 20.3873 14.4856C19.5309 14.7474 18.6583 14.9314 17.7774 15.0359C17.1138 15.0875 16.5461 15.2508 16.5461 15.3798C16.5461 15.5088 16.3545 15.5346 16.1185 15.5775C15.8826 15.6205 15.7425 15.7323 15.7867 15.8269C15.831 15.9214 14.3564 16.7296 13.9362 16.7296C13.8108 16.7296 13.7666 16.7984 13.8403 16.8672C14.3119 16.979 14.8013 16.9282 15.2485 16.721C15.6693 16.5376 16.1004 16.3883 16.5388 16.274L17.7258 15.93L16.8632 15.9988C16.0153 16.0676 16.0079 16.0676 16.5388 15.8613C17.276 15.5861 17.8364 15.5947 17.8364 15.8613C17.8364 16.1278 17.8954 16.0504 18.0944 15.93C18.4704 15.6893 18.6326 15.7237 18.7727 16.0676C18.9128 16.4115 18.957 16.3341 19.1708 16.2052C20.0431 15.9983 20.9408 15.9837 21.8177 16.1622C21.8914 16.231 21.7218 16.3255 21.4564 16.3771C20.7191 16.5061 16.9148 17.6754 17.0327 17.7356C17.4596 17.7026 17.8836 17.6307 18.3009 17.5206C19.7754 17.2111 20.1588 17.1939 20.321 17.469C20.4832 17.7442 18.4262 18.1826 15.4845 18.1912C12.7344 18.1912 11.54 18.5351 8.03798 20.2891C6.02677 21.1617 3.95129 21.8179 1.8375 22.2494C1.31118 22.3485 0.796536 22.5187 0.303965 22.7566C0.280694 23.1897 0.313002 23.6243 0.399814 24.0463C0.550816 24.7362 0.490848 25.4659 0.230239 26.1098C-0.116281 27.0297 -0.10891 27.0469 0.510401 28.6375C0.584129 28.8266 0.510403 29.0416 0.281848 29.1877C-0.0351807 29.4113 -0.0425534 29.48 0.281848 29.9615C0.606249 30.443 0.805315 30.5548 1.57945 30.7525C2.53791 31.0018 2.56003 31.0018 3.05401 30.7525C3.45173 30.5274 3.86961 30.3544 4.3 30.2366C4.77185 30.1507 5.59761 29.9443 6.13582 29.7896C7.01713 29.5805 7.91292 29.4654 8.81212 29.4457L10.5226 29.3769L10.1097 29.6606C8.17851 30.2428 6.20299 30.6027 4.21153 30.7353C3.47425 30.7783 3.09824 30.8557 3.14985 30.9589C3.43239 31.0927 3.74147 31.1315 4.04195 31.0706C4.72024 31.0276 4.83084 31.0706 4.77923 31.277C4.72762 31.4833 4.84558 31.5177 5.7598 31.4747C6.67403 31.4317 6.79936 31.4747 6.65928 31.7155C6.5192 31.9562 6.59292 31.9734 6.85834 31.9132C7.4592 31.8884 8.0608 31.92 8.6573 32.0078C9.45355 32.1023 10.2277 32.1711 10.3751 32.1539C10.5226 32.1367 10.6479 32.1969 10.6479 32.2915C10.6479 32.3861 10.6995 32.4291 10.8101 32.2915C11.6219 31.8891 12.5028 31.7124 13.3832 31.7756C14.2606 31.8788 14.2975 32.1195 13.5528 32.7386C13.1694 33.0857 12.6867 33.2487 12.2036 33.1943C11.5349 33.2313 10.8696 33.3261 10.2129 33.478C9.56415 33.6242 8.68678 33.8133 8.27391 33.8907C7.40393 34.054 6.65928 34.4151 7.19749 34.4151C7.37444 34.4151 8.08222 34.355 8.78263 34.2862C10.0286 34.1572 11.9382 34.226 11.9382 34.4065C11.6675 34.5687 11.3763 34.679 11.0756 34.7332C10.1982 34.9826 9.94753 35.3093 10.5374 35.4469C10.6194 35.4615 10.695 35.5074 10.7523 35.5774C10.8097 35.6474 10.8456 35.7375 10.8544 35.8338C10.8544 36.4098 11.3336 36.5044 13.0146 36.2465C13.7112 36.1125 14.4181 36.0664 15.1232 36.1089C15.6614 36.2035 15.6098 36.2293 14.526 36.3926C11.5106 36.8397 9.74846 37.3728 10.6553 37.5619C11.4357 37.4863 12.2114 37.3542 12.9777 37.1664C14.1279 36.9257 15.2707 36.7279 15.5213 36.7193C15.9527 36.7845 16.3701 36.9419 16.7526 37.1836C17.6152 37.6909 17.6004 37.7167 16.1406 38.1895C15.6358 38.3604 15.1428 38.5759 14.6661 38.8344C14.0689 39.1869 14.0615 39.2213 14.4302 39.3932C14.7724 39.5116 15.1275 39.5724 15.4845 39.5738C16.1259 39.5738 16.1333 39.5738 15.713 39.7887C15.4771 39.9005 15.1085 40.0638 14.8873 40.1584C14.5039 40.3132 14.5113 40.3304 14.8873 40.6227C15.2633 40.915 15.4402 40.9064 16.4134 40.8376C17.3866 40.7689 17.5267 40.7861 17.5267 40.9752C17.5267 41.1644 17.335 41.1987 16.8705 41.1987C14.9505 41.3526 13.04 41.6397 11.1493 42.0585C10.412 42.2735 10.1835 42.5572 10.5816 42.7119C10.993 42.692 11.3999 42.6052 11.7907 42.454C12.3886 42.2662 12.9971 42.1283 13.6118 42.0413C14.0394 41.9897 14.8725 41.8694 15.4623 41.7662C17.0475 41.4825 18.5294 41.5083 18.9792 41.8436C19.4394 42.0929 19.9492 42.191 20.4537 42.1273C21.0509 42.1273 21.9799 42.1789 22.5107 42.2305C23.3291 42.3164 23.4102 42.3508 22.9899 42.4368C22.4454 42.4919 21.8977 42.4919 21.3532 42.4368C20.1293 42.3336 16.9295 42.6002 16.9295 42.7979C17.3769 42.8733 17.8313 42.8733 18.2787 42.7979C19.016 42.7463 20.0113 42.7119 20.4906 42.7205C25.2091 42.8495 26.1455 42.8667 25.0912 42.7893C24.6255 42.7698 24.162 42.7065 23.7051 42.6002C23.4397 42.4282 25.0985 42.4798 26.3961 42.6861C27.0597 42.7893 28.0034 42.9183 28.4753 42.9613C28.9471 43.0043 29.5296 43.0644 29.7729 43.0902L30.3111 43.1676C30.3701 43.1676 30.3111 43.2364 30.0899 43.3052C29.8515 43.3911 29.5997 43.4146 29.3526 43.374C29.1462 43.374 28.7849 43.2708 28.549 43.2278C28.3131 43.1848 28.114 43.2278 28.114 43.2966C28.114 43.3654 28.4015 43.4427 28.7628 43.4427C29.5885 43.4427 29.5885 43.6491 28.7628 43.9242C27.937 44.1993 28.0919 44.3971 28.8881 44.3971C29.242 44.3971 29.4116 44.4745 29.419 44.6292C29.4263 44.784 29.4706 44.8184 29.5885 44.698C29.7065 44.5776 30.5765 44.5347 32.7293 44.698C32.8326 44.698 32.7957 44.8012 32.6482 44.913C32.228 45.2311 32.5524 45.3085 33.6288 45.1537C34.7052 44.9989 36.3862 45.0677 36.5042 45.2655C36.5352 45.3024 36.5752 45.3272 36.6188 45.3364C36.6624 45.3457 36.7073 45.3389 36.7475 45.317C37.2692 45.3709 37.7852 45.4832 38.2884 45.6523C39.5123 46.0049 39.5934 46.0565 39.0257 46.065C36.8054 46.1547 34.583 45.9905 32.3902 45.575C32.1174 45.5148 32.0289 45.5234 32.1174 45.618C32.2059 45.7125 29.854 46.0994 29.36 45.9791C28.9914 45.8931 27.7306 46.2886 27.7306 46.4949C27.7306 46.7013 27.9444 46.6067 28.2909 46.5465C29.4384 46.3828 30.5976 46.3626 31.7488 46.4863C31.8071 46.5341 31.8766 46.5597 31.9478 46.5597C32.0191 46.5597 32.0886 46.5341 32.1469 46.4863C32.4713 46.1596 35.9512 46.4863 38.458 47.0366C39.1436 47.1913 40.8689 47.5267 42.2992 47.7846C45.7201 48.3864 47.9983 48.7991 48.6619 48.9195C49.2074 49.0313 49.1927 49.0313 48.1458 49.2548C47.9172 49.2548 47.7845 49.3666 47.8509 49.4096C48.1767 49.4071 48.5011 49.358 48.8167 49.2634L49.6719 49.0485L54.2578 50.0114C56.794 50.5445 59.4187 51.1033 60.156 51.2495C60.8933 51.3956 62.3678 51.688 63.4074 51.9029C64.4469 52.1178 65.516 52.307 65.715 52.307C65.9014 52.3025 66.0843 52.3656 66.2385 52.4875C66.5663 52.6564 66.9198 52.7471 67.2781 52.7541C67.7499 52.7971 68.819 52.9002 69.6521 52.9776C70.4852 53.055 71.451 53.1496 71.8049 53.184C72.38 53.2441 72.4021 53.2355 71.9671 53.1238C71.6943 53.0464 70.8244 52.926 70.0207 52.84C69.2171 52.7541 68.325 52.6595 68.0301 52.6079C67.5214 52.5305 67.5361 52.5219 68.2439 52.436C68.9517 52.35 68.9812 52.3414 68.3545 52.3156C67.9874 52.3053 67.624 52.227 67.2781 52.0835C66.8799 51.8943 66.9905 51.8857 68.6273 51.9201C69.2216 51.9054 69.8159 51.9485 70.4041 52.0491C70.9484 52.2428 71.5238 52.2869 72.0851 52.178C72.5275 52.1006 72.2694 52.0319 70.817 51.8341C70.1381 51.7563 69.4636 51.6328 68.7969 51.4644C68.5241 51.3097 69.9691 51.3183 70.7506 51.4644C71.0972 51.5332 71.6722 51.6278 72.0261 51.6794C72.5348 51.7395 72.6012 51.6794 72.3505 51.6106C72.0999 51.5418 72.1883 51.473 72.7634 51.5332C73.1615 51.5762 74.4739 51.6536 75.6683 51.7051C77.0248 51.7567 77.681 51.8341 77.4156 51.8943C77.1502 51.9545 77.2018 52.0061 77.8506 52.0319C79.5434 52.1182 81.2389 52.1039 82.9304 51.9889C83.3811 51.928 83.8363 51.928 84.287 51.9889C85.4298 52.0577 85.4888 52.0834 85.0906 52.2554C84.3534 52.5735 84.5377 52.84 85.4593 52.8314C86.1966 52.8314 86.2482 52.8315 85.7321 52.6767L85.1939 52.5305L85.7321 52.4274C86.4693 52.2812 87.4573 52.2726 87.4573 52.4274C87.4573 52.5821 87.6785 52.5477 87.9439 52.5477C88.4168 52.5783 88.8874 52.6472 89.3521 52.7541C89.6903 52.8809 90.0507 52.9046 90.399 52.8229C90.636 52.7292 90.8888 52.7027 91.1363 52.7455C91.3824 52.7905 91.6339 52.7729 91.8736 52.6939C91.9399 52.6251 91.763 52.5735 91.4902 52.5649C89.4774 52.5219 87.649 52.3242 87.649 52.1522C87.649 51.9803 87.8038 52.049 88.025 52.1006C88.2462 52.1522 89.6544 52.1866 91.1805 52.178C93.3758 52.1376 95.5708 52.2755 97.7497 52.5907C99.1284 52.7627 99.497 52.6595 98.251 52.4446C97.005 52.2296 96.9239 52.0319 98.0519 52.0319C98.7081 52.0319 98.8851 52.0748 98.6639 52.1608C98.1183 52.3758 98.7892 52.4446 100.92 52.393C101.853 52.3401 102.788 52.3861 103.714 52.5305C104.092 52.625 104.478 52.6654 104.864 52.6509C105.019 52.6509 105.093 52.6509 105.019 52.7111C104.945 52.7713 105.019 52.8486 105.115 52.8486C105.169 52.856 105.223 52.8385 105.265 52.7999C105.308 52.7613 105.336 52.7047 105.344 52.6423C105.344 52.4531 105.041 52.3844 104.326 52.4016C104.179 52.4016 104.112 52.35 104.179 52.2898C105.321 52.1841 106.469 52.239 107.6 52.4531C107.917 52.5531 108.245 52.5966 108.573 52.5821C108.993 52.5821 110.047 52.7025 110.851 52.8314L112.362 53.0636L110.689 53.1925C109.315 53.3399 107.933 53.3399 106.56 53.1925C105.823 53.0722 105.189 53.1324 105.189 53.3129C105.536 53.4429 105.902 53.4897 106.265 53.4505C107.659 53.4505 107.865 53.674 106.582 53.7944C105.535 53.8976 99.6297 53.7944 99.438 53.674C99.2463 53.5537 101.222 53.2957 103.051 53.2699C104.525 53.2699 104.835 53.2183 104.4 53.1238C102.627 53.0674 100.853 53.1564 99.0915 53.3903C98.8924 53.4419 98.7229 53.3903 98.7229 53.3387C98.7229 53.2871 98.9957 53.1754 99.3201 53.141C99.7993 53.141 99.7624 53.0808 99.1136 53.0636C98.4648 53.0464 98.3321 53.0636 98.4353 53.2441C98.5385 53.4247 98.1773 53.5279 97.9708 53.3129C97.9246 53.274 97.8714 53.2477 97.8153 53.2358C97.7592 53.2239 97.7015 53.2267 97.6464 53.2441C97.1333 53.3263 96.6161 53.3694 96.0982 53.3731C95.3609 53.3731 94.3287 53.4677 93.8421 53.5193C93.4973 53.6029 93.14 53.5852 92.8025 53.4677C92.7214 53.3817 92.7583 53.3129 92.8836 53.3129C93.009 53.3129 93.1122 53.2527 93.1122 53.1754C93.1122 53.098 92.9205 53.1152 92.6403 53.1754C92.0358 53.3989 91.5271 53.6826 91.6376 53.7514C91.7482 53.8202 96.5995 54.2329 97.0566 54.2329C97.1598 54.2329 97.1967 54.2759 97.1377 54.336C97.0787 54.3962 100.478 54.4564 104.68 54.4822C110.578 54.4822 112.399 54.4822 112.65 54.3618C113.218 54.2297 113.802 54.2122 114.375 54.3103C115.171 54.3618 116.845 54.4564 118.062 54.5252C119.716 54.5071 121.36 54.8272 122.92 55.471C124.4 55.9281 125.918 56.199 127.447 56.2791C127.926 56.2791 128.922 56.3909 129.607 56.4855C130.293 56.5801 131.974 56.8208 133.294 57.0013C134.613 57.1819 135.904 57.414 136.191 57.5086C136.719 57.6532 137.257 57.7452 137.798 57.7837C138.403 57.8353 138.993 57.8869 139.103 57.8955C139.479 57.8955 138.477 57.543 137.924 57.4484C135.756 57.0615 132.372 56.3393 132.158 56.2018C131.702 56.0524 131.231 55.9658 130.757 55.9438C130.012 55.8716 129.273 55.7336 128.546 55.5311C127.646 55.2474 127.447 55.2302 127.071 55.385C126.85 55.4795 126.732 55.6171 126.82 55.6773C127.359 56.0384 122.633 55.3076 122.043 54.9379C121.77 54.7659 121.977 54.7659 128.066 54.9379C130.339 54.9184 132.61 55.0792 134.864 55.4194C135.992 55.6085 137.201 55.7891 137.563 55.8234L138.204 55.8836L137.504 55.6859C137.265 55.6257 137.03 55.5423 136.803 55.4366C136.803 55.4366 137.717 55.3764 138.838 55.3592C140.593 55.3592 140.932 55.3592 141.271 55.5913C141.61 55.8235 142.104 55.8149 145.643 55.8149ZM188.331 55.2044C188.576 55.1714 188.824 55.1714 189.069 55.2044C189.275 55.2044 189.105 55.2646 188.693 55.2646C188.28 55.2646 188.103 55.2388 188.331 55.17L188.331 55.2044ZM185.626 55.0669C186.129 55.0365 186.633 55.0365 187.137 55.0669C187.587 55.0669 187.27 55.1184 186.437 55.1184C185.603 55.1184 185.242 55.0926 185.626 55.0669ZM182.013 54.8605C183.141 54.8605 184.107 54.9465 184.158 54.9723C183.084 55.0335 182.007 55.0048 180.936 54.8863C180.391 54.8347 180.855 54.8175 182.013 54.8605ZM254.458 56.0986C253.993 56.0986 253.72 56.0384 253.809 55.961C254.012 55.8533 254.235 55.806 254.458 55.8234C254.68 55.8071 254.903 55.8543 255.106 55.961C255.195 56.0298 254.9 56.0986 254.458 56.0986ZM263.305 56.3737C263.888 56.2283 264.491 56.2283 265.074 56.3737C265.155 56.4253 264.757 56.4683 264.197 56.4683C263.637 56.4683 263.202 56.4511 263.305 56.3737ZM263.379 51.6536C263.665 51.6191 263.954 51.6191 264.241 51.6536C264.448 51.6536 264.241 51.7137 263.755 51.7137C263.268 51.7137 263.076 51.6879 263.349 51.6536L263.379 51.6536ZM256.883 47.1569C257.104 47.1569 256.824 47.2773 256.256 47.3547C255.88 47.4404 255.494 47.4549 255.114 47.3977C254.959 47.2687 256.279 47.0882 256.854 47.1569L256.883 47.1569ZM257.82 51.1205C257.394 51.2526 256.96 51.3447 256.522 51.3956L255.785 51.4816L256.433 51.2925C256.861 51.1752 257.295 51.0862 257.731 51.0259L258.38 50.9399L257.82 51.1205ZM260.37 50.4327C260.505 50.3868 260.649 50.3868 260.783 50.4327C260.857 50.4757 260.724 50.5101 260.496 50.5015C260.267 50.4929 260.164 50.4843 260.356 50.4327L260.37 50.4327ZM258.468 48.6272C259.206 48.481 259.773 48.481 259.206 48.6272C258.92 48.7025 258.628 48.74 258.336 48.7389C257.982 48.7389 258.004 48.7131 258.439 48.6272L258.468 48.6272ZM258.844 49.7621C259.287 49.8136 259.781 49.848 259.936 49.848C260.09 49.848 260.157 49.9082 260.083 49.9856C259.847 50.2263 258.033 50.0888 258.033 49.8222C258.004 49.7363 258.306 49.7105 258.815 49.7621L258.844 49.7621ZM258.107 50.1232C258.295 50.2284 258.503 50.2757 258.712 50.2607C259.095 50.2607 259.125 50.2607 258.859 50.3983C258.483 50.553 258.468 50.553 257.834 50.3983C257.569 50.3295 257.348 50.2091 257.348 50.1318C257.348 50.0544 257.937 49.9426 258.144 50.1232L258.107 50.1232ZM254.236 49.1774C254.804 49.0358 255.382 48.961 255.962 48.9539C256.935 48.9109 257.348 48.9539 257.134 49.0141C256.669 49.2032 253.956 49.3666 254.244 49.1516L254.236 49.1774ZM248.338 53.3731C248.088 53.3731 248.036 53.3731 248.205 53.2871C248.343 53.2396 248.489 53.2396 248.626 53.2871C248.729 53.3473 248.604 53.3817 248.375 53.3731L248.338 53.3731ZM255.586 53.2441C255.844 53.141 255.851 53.1152 255.586 53.1152C255.32 53.1152 255.342 53.0722 255.586 52.9088C256.023 52.6711 256.524 52.6433 256.979 52.8314C257.053 52.9088 256.758 53.055 256.323 53.1753C255.468 53.4075 255.143 53.4505 255.622 53.2441L255.586 53.2441ZM253.307 52.2124C252.895 52.3156 252.968 52.3242 252.504 52.1006C252.157 51.9373 252.194 51.9115 252.887 51.8599C253.58 51.8083 254.008 52.049 253.344 52.2124L253.307 52.2124ZM252.688 45.5062C253.101 45.6179 253.101 45.6266 252.644 45.6352C252.436 45.6561 252.227 45.6115 252.039 45.5062C251.921 45.3514 252.128 45.3514 252.725 45.5062L252.688 45.5062ZM251.951 50.8024L252.924 50.9055L251.951 50.9485C248.906 51.0775 246.79 50.9485 246.79 50.725C246.79 50.5015 247.107 50.5358 248.891 50.6132C250.034 50.6562 251.427 50.7508 251.958 50.8024L251.951 50.8024ZM251.84 52.2726C251.486 52.2726 251.368 52.2726 251.575 52.2038C251.79 52.1692 252.008 52.1692 252.224 52.2038C252.378 52.2468 252.246 52.2726 251.848 52.2726L251.84 52.2726ZM249.879 52.0147C249.628 52.0147 249.577 51.9717 249.754 51.9287C249.889 51.8828 250.032 51.8828 250.167 51.9287C250.248 51.9889 250.115 52.0233 249.886 52.0147L249.879 52.0147ZM243.745 45.0935C244.372 44.9301 250.38 45.2311 249.968 45.3944C248.801 45.5364 247.625 45.5364 246.458 45.3944C245.861 45.3342 244.895 45.2826 244.298 45.2654C243.398 45.2225 243.295 45.2053 243.752 45.0935L243.745 45.0935ZM243.856 51.8513C243.266 51.8513 243.045 51.8513 243.376 51.7911C243.735 51.7653 244.094 51.7653 244.453 51.7911C244.726 51.8255 244.46 51.8513 243.863 51.8513L243.856 51.8513ZM242.897 44.8356C243.148 44.8356 243.295 44.8958 243.221 44.9645C243.131 45.0542 243.016 45.1034 242.897 45.1034C242.778 45.1034 242.663 45.0542 242.573 44.9645C242.506 44.8528 242.661 44.8528 242.904 44.8528L242.897 44.8356ZM243.31 45.7813C244.099 45.7813 244.408 45.8329 244.408 45.9705C244.408 46.3316 242.492 46.3144 242.3 45.9705C242.248 45.8329 242.551 45.7813 243.317 45.7813L243.31 45.7813ZM241.305 46.8044C241.386 46.6669 241.703 46.5981 242.219 46.6067L243 46.6067L242.351 46.7958C241.504 47.0538 241.187 47.0538 241.312 46.8044L241.305 46.8044ZM240.766 52.307C241.502 52.2011 242.248 52.2243 242.978 52.3758C243.241 52.467 243.516 52.4991 243.789 52.4703C244.018 52.4703 244.209 52.4703 244.209 52.5305C244.834 52.6416 245.468 52.6647 246.097 52.5993C250.521 52.4617 255.21 52.5477 255.224 52.7713C255.224 52.8486 254.915 52.9432 254.524 52.9862L253.787 53.0722L254.428 53.0722C254.996 53.0722 255.025 53.0722 254.649 53.2183C254.111 53.3645 253.993 53.3731 253.853 53.2871C253.445 53.2171 253.034 53.1884 252.622 53.2011C252.208 53.2228 251.793 53.1765 251.39 53.0636C251.332 53.0034 251.391 52.9518 251.516 52.9518C251.641 52.9518 251.7 52.8916 251.626 52.8142C251.393 52.7051 251.14 52.6609 250.889 52.6853C250.572 52.6853 250.432 52.7283 250.579 52.7713C251 52.8744 250.897 53.0894 250.417 53.0894C250.181 53.0894 250.012 53.0206 250.041 52.9346C250.071 52.8486 249.945 52.7541 249.768 52.7197C249.592 52.6853 249.488 52.6767 249.768 52.7971C250.049 52.9174 250.041 52.9432 249.768 53.0206C249.23 53.1496 247.557 53.0206 247.594 52.8314C247.63 52.6423 247.549 52.6767 247.431 52.6767C247.313 52.6767 247.218 52.7455 247.218 52.8314C247.218 52.9174 246.76 52.9604 245.647 52.8916C243.251 52.7541 239.601 52.5649 239.137 52.5563C238.164 52.5907 239.115 52.4016 240.774 52.307L240.766 52.307ZM237.567 52.8658C237.795 52.7283 238.355 52.7197 240.398 52.8658C241.799 52.9432 243 53.0378 243.074 53.0894C242.131 53.1455 241.186 53.1455 240.243 53.0894C237.817 53.055 237.345 53.012 237.574 52.8658L237.567 52.8658ZM236.136 52.7541C236.314 52.7112 236.497 52.7112 236.674 52.7541C236.829 52.7541 236.674 52.8228 236.409 52.8228C236.144 52.8228 236.026 52.7885 236.144 52.7541L236.136 52.7541ZM256.61 41.1471C257.348 41.2331 257.392 41.2589 256.935 41.3105C254.954 41.3384 252.973 41.2494 251 41.044C250.034 40.8892 255.195 40.9838 256.618 41.1471L256.61 41.1471ZM248.036 40.7345C248.347 40.6168 248.683 40.6168 248.994 40.7345L249.732 40.872L248.773 40.872C248.021 40.8892 247.822 40.8548 248.043 40.7345L248.036 40.7345ZM238.451 40.0896C239.771 40.0896 244.785 40.5453 244.984 40.6657C243.828 40.7572 242.669 40.7801 241.511 40.7345C238.51 40.7345 237.825 40.6657 237.485 40.4851C236.94 40.1756 237.176 40.081 238.466 40.0896L238.451 40.0896ZM266.984 29.7724C267.418 29.7813 267.851 29.8158 268.281 29.8755L268.923 29.9787L268.281 29.9787C267.848 29.9746 267.414 29.9401 266.984 29.8755L266.335 29.7724L266.984 29.7724ZM232.914 16.8156C233.969 16.9183 235.018 17.0934 236.055 17.3401C237.08 17.5894 238.385 17.8559 238.945 17.9419C239.444 18.0061 239.937 18.1182 240.42 18.2772C240.855 18.475 240.855 18.4749 240.42 18.4577C239.807 18.4374 239.196 18.3684 238.591 18.2514C238.388 18.2003 238.18 18.183 237.972 18.1998C236.047 18.0518 234.142 17.648 232.295 16.9962L231.609 16.7296L232.914 16.8156ZM228.078 15.7753C228.369 15.8123 228.658 15.8755 228.94 15.9644C229.339 16.0762 229.516 16.1622 229.339 16.1622C229.044 16.1794 227.812 15.8011 228.093 15.7925L228.078 15.7753ZM204.131 52.135C203.777 52.0662 201.978 51.9717 200.135 51.9287C198.292 51.8857 195.711 51.7997 194.421 51.7395C193.131 51.6793 191.774 51.6536 191.472 51.6966C191.17 51.7395 190.875 51.6965 190.875 51.6106C190.875 51.5246 191.656 51.473 193.824 51.5332C199.722 51.688 204.36 51.9201 204.994 52.092C205.797 52.3242 205.149 52.3586 204.146 52.1522L204.131 52.135ZM226.249 37.7596C226.67 37.5877 226.898 37.5877 226.898 37.7596C226.898 37.9316 226.677 37.8972 226.412 37.8972C226.065 37.9058 226.036 37.88 226.294 37.7768L226.249 37.7596ZM233.688 44.5432C233.762 44.6206 233.688 44.6808 233.526 44.6808C233.048 44.7545 232.575 44.8695 232.111 45.0247C231.444 45.2303 230.758 45.3372 230.068 45.3428C229.163 45.3537 228.257 45.2761 227.363 45.1107C228.168 44.9842 228.964 44.7888 229.744 44.526C231.071 44.3692 232.408 44.3808 233.733 44.5604L233.688 44.5432ZM227.658 37.6651C228.011 37.7081 229.206 37.7854 230.319 37.837C231.624 37.8972 232.258 37.9746 232.125 38.0606C230.956 38.2534 229.773 38.3053 228.594 38.2153C228.183 38.1887 227.781 38.072 227.407 37.8714C227.053 37.6135 227.06 37.6049 227.702 37.6823L227.658 37.6651ZM228.395 44.2853L229.611 44.2853L228.528 44.4745C227.053 44.7324 226.559 44.7324 226.913 44.4745C227.396 44.2811 227.911 44.2222 228.417 44.3025L228.395 44.2853ZM226.441 34.7418C228.034 34.8622 228.247 34.974 227.495 35.2835C227.149 35.4211 226.677 35.6446 226.448 35.7736C225.969 36.0487 225.763 36.0659 225.571 35.8767C225.072 35.753 224.562 35.7068 224.052 35.7392C223.586 35.7748 223.118 35.7401 222.659 35.636C222.911 35.4721 223.185 35.3587 223.47 35.3007C223.912 35.1631 224.524 34.9654 224.819 34.8622C225.348 34.702 225.899 34.6611 226.441 34.7418ZM198.896 14.1073C199.582 14.1503 201.794 14.2191 203.807 14.2535C205.819 14.2879 208.739 14.391 210.287 14.4598C211.836 14.5286 215.279 14.6146 217.948 14.6576C219.917 14.6287 221.886 14.7262 223.846 14.9499C224.193 15.0042 224.535 15.0904 224.871 15.2078C224.628 15.2655 224.38 15.28 224.133 15.2508C223.75 15.2508 221.295 15.1734 218.685 15.1132C211.747 14.9499 198.403 14.477 197.99 14.3824C197.193 14.1675 197.687 14.0127 198.867 14.0815L198.896 14.1073ZM189.931 34.3378C190.057 34.1486 190.41 34.1228 192.821 34.183C196.294 34.2604 202.406 34.5011 207.567 34.759C209.779 34.8708 213.001 34.9568 214.755 34.9568C218.036 34.9568 218.766 35.1029 216.37 35.2921C214.954 35.4039 209.786 35.4641 207.832 35.3867C207.451 35.4155 207.068 35.3601 206.704 35.2233C206.153 35.0974 205.59 35.0597 205.031 35.1115C204.293 35.1299 203.554 35.1041 202.819 35.0342C202.608 34.9569 202.381 34.9569 202.17 35.0342C201.121 35.1538 200.064 35.1538 199.014 35.0342C193.116 34.802 189.99 34.6473 189.894 34.5871C189.799 34.5269 189.828 34.4409 189.902 34.312L189.931 34.3378ZM127.904 3.79004C128.191 3.75554 128.48 3.75554 128.767 3.79004C128.973 3.79004 128.767 3.85024 128.273 3.85024C127.779 3.85024 127.602 3.79864 127.875 3.76425L127.904 3.79004ZM103.456 2.67235C104.046 2.509 104.26 2.509 104.105 2.67235C103.912 2.77002 103.703 2.81416 103.493 2.80131C103.014 2.72394 103.006 2.72394 103.427 2.64656L103.456 2.67235ZM102.328 2.44022C102.543 2.40091 102.762 2.40091 102.977 2.44022C103.117 2.44022 102.977 2.50039 102.594 2.50039C102.21 2.50039 102.085 2.44882 102.299 2.41443L102.328 2.44022ZM97.7349 3.35158C98.1478 3.2914 99.0251 3.214 99.6739 3.17101L100.861 3.10224L99.7845 3.28278C99.1391 3.38458 98.4893 3.44484 97.8381 3.46333L96.9755 3.46333L97.7349 3.35158ZM92.7288 3.53213C92.8636 3.48627 93.0069 3.48627 93.1417 3.53213C93.2154 3.57512 93.0827 3.60949 92.8615 3.60089C92.6403 3.5923 92.5224 3.58371 92.6993 3.50633L92.7288 3.53213ZM34.2629 6.97122C33.732 6.97122 33.5256 6.97121 33.7763 6.91102C34.1 6.87661 34.4257 6.87661 34.7495 6.91102C34.9854 6.93682 34.7495 6.97122 34.2334 6.97122L34.2629 6.97122ZM9.37245 30.3484C8.83424 30.4344 7.79468 30.615 7.05004 30.7525C6.56674 30.8809 6.07044 30.9301 5.57549 30.8987C5.41328 30.7353 9.57152 30.0389 10.0434 30.1249C10.2129 30.1593 9.90329 30.2366 9.37245 30.3484ZM13.6486 33.8993C12.8134 34.054 11.9624 34.054 11.1272 33.8993C10.9281 33.8219 11.1272 33.7617 11.8055 33.6929C12.9335 33.5898 14.1058 33.6757 13.6486 33.8993ZM11.5474 19.0596C12.4607 18.763 13.4109 18.6524 14.3564 18.7329L16.4061 18.7329L14.467 18.9049C13.398 19.008 12.1815 19.1542 11.7686 19.2402C10.7143 19.4207 10.6848 19.4035 11.5474 19.0596ZM11.8939 29.9529C11.7096 29.9529 11.5695 29.9529 11.5695 29.9013C11.5695 29.8497 11.7096 29.8068 11.8939 29.7638C12.0783 29.7208 12.2183 29.7638 12.2183 29.8154C12.2183 29.8669 12.034 29.9529 11.8939 29.9529ZM15.1453 19.6357C14.3122 19.6357 13.2948 19.713 12.8819 19.7818C11.282 20.0226 11.0313 20.0483 10.7733 19.9452C10.2867 19.756 13.4348 19.2316 15.4771 19.1628C17.0475 19.1112 17.4161 19.1628 17.4161 19.2917C17.4161 19.4207 16.9664 19.5841 15.1085 19.6185L15.1453 19.6357ZM16.9738 38.9891C15.7204 39.2642 15.4992 39.2557 15.9784 38.9289C16.9295 38.2669 19.3257 37.7081 19.3257 38.1465C19.2667 38.3271 18.323 38.671 16.9369 38.9719L16.9738 38.9891ZM20.3652 40.8118C20.1514 41.0268 19.8565 41.0956 19.193 41.0956C18.3304 41.0956 18.0207 41.0268 18.0207 40.8118C18.837 40.5665 19.6771 40.4451 20.5201 40.4507C20.5569 40.4765 20.4832 40.6399 20.3284 40.7946L20.3652 40.8118ZM20.203 37.1578C19.3183 37.4501 18.581 37.2008 19.193 36.8139C19.4692 36.6753 19.774 36.6334 20.0703 36.6935C20.6896 36.7795 20.7412 36.9429 20.1662 37.1148L20.203 37.1578ZM21.4195 13.8666C20.9213 13.9944 20.4164 14.0834 19.9081 14.1331C19.0676 14.2191 19.0603 14.2191 19.5911 14.0299C20.0741 13.8859 20.5679 13.7966 21.0656 13.7634C22.0167 13.686 22.0167 13.686 21.3827 13.8666L21.4195 13.8666ZM21.8103 15.483C23.3095 15.2689 24.8224 15.2171 26.3298 15.3282C28.0108 15.483 28.7259 15.5517 28.8586 15.5689C28.9914 15.5861 28.8586 15.6377 28.6448 15.7151C27.9665 15.9558 21.3458 15.7409 21.7734 15.4658L21.8103 15.483ZM24.6783 37.4673C25.1241 37.4757 25.5673 37.5478 25.998 37.6823C26.6346 37.8529 27.2797 37.9764 27.9297 38.052C28.2759 38.066 28.6186 38.1384 28.9471 38.2669C29.0651 38.3787 28.9471 38.3959 28.4974 38.3185C28.3794 38.3185 27.4062 38.1036 26.3372 37.8972C25.7565 37.8434 25.1855 37.6928 24.6414 37.4501L24.6783 37.4673ZM26.3888 42.0929C26.1448 42.1399 25.8986 42.1686 25.6515 42.1789C25.3271 42.1789 26.2266 41.7748 26.551 41.7748C27.0228 41.7576 26.8754 41.9897 26.3519 42.0757L26.3888 42.0929ZM31.6308 42.7893C30.8493 43.0473 30.7461 43.0386 29.1388 42.7291C28.4015 42.5916 27.5537 42.4368 27.1924 42.3852L26.551 42.282L27.2882 42.0843C27.7512 41.9268 28.2408 41.9091 28.7112 42.0327C29.2458 42.1263 29.7852 42.178 30.3258 42.1875C31.4539 42.1875 32.2501 42.2992 32.2501 42.4626C32.2501 42.626 31.9478 42.6604 31.5939 42.7721L31.6308 42.7893ZM36.2093 12.147C35.5236 12.147 35.472 12.147 35.9881 12.0439C36.4546 11.9685 36.9253 11.934 37.3963 11.9407C38.2147 11.9407 38.222 11.9407 37.6101 12.0439C37.1328 12.1064 36.6527 12.1351 36.1724 12.1298L36.2093 12.147ZM37.6101 12.6887C37.1309 12.6887 36.9613 12.6887 37.2341 12.6285C37.5209 12.594 37.8099 12.594 38.0967 12.6285C38.2663 12.6457 38.0451 12.6715 37.5732 12.6715L37.6101 12.6887ZM69.3129 51.8513C69.4478 51.8055 69.591 51.8055 69.7258 51.8513C69.7922 51.8943 69.6668 51.9287 69.4383 51.9201C69.2097 51.9115 69.1286 51.8771 69.3056 51.8341L69.3129 51.8513ZM108.138 10.737L106.708 10.8746C106.383 10.8746 106.118 10.8746 106.118 10.8144C106.541 10.6693 106.981 10.5968 107.423 10.5995C108.868 10.4619 109.443 10.5908 108.13 10.7198L108.138 10.737ZM106.545 11.1841C106.132 11.1841 105.963 11.1841 106.169 11.1239C106.414 11.0915 106.662 11.0915 106.907 11.1239C107.128 11.1411 106.958 11.1669 106.538 11.1669L106.545 11.1841ZM105.292 10.3931C102.947 10.5737 100.293 10.5737 101.252 10.3931C101.864 10.2813 103.331 10.1954 106.767 10.0664C108.801 9.98042 107.931 10.1696 105.285 10.3759L105.292 10.3931ZM110.74 9.98041C110.49 9.98041 110.438 9.98041 110.608 9.89443C110.745 9.84689 110.891 9.84689 111.028 9.89443C111.087 9.93742 110.962 9.97183 110.733 9.96323L110.74 9.98041ZM116.484 9.29261C116.182 9.29261 116.064 9.29259 116.211 9.22381C116.389 9.18094 116.572 9.18094 116.749 9.22381C116.889 9.24101 116.771 9.2754 116.476 9.2754L116.484 9.29261ZM117.435 9.29261C117.184 9.29261 117.133 9.24961 117.302 9.20663C117.437 9.16077 117.58 9.16077 117.715 9.20663C117.781 9.25821 117.656 9.2926 117.428 9.284L117.435 9.29261ZM109.797 5.10549C110.793 4.97027 111.797 4.93864 112.797 5.01094C112.753 5.01094 111.935 5.10551 110.984 5.1485C109.878 5.18289 109.45 5.17429 109.789 5.09692L109.797 5.10549ZM111.411 5.73314C110.674 5.73314 110.438 5.73313 110.822 5.67295C111.254 5.64711 111.687 5.64711 112.119 5.67295C112.436 5.69874 112.119 5.72453 111.426 5.72453L111.411 5.73314ZM109.627 8.1491C111.913 7.94275 120.369 7.80518 120.369 7.97713C120.369 8.14908 120.104 8.0889 119.772 8.0889C119.44 8.0889 119.308 8.08891 119.462 8.17489C119.965 8.2192 120.471 8.2192 120.974 8.17489C122.08 8.08031 122.139 8.05453 121.556 7.96855C122.56 7.84095 123.571 7.80931 124.579 7.87396C128.177 7.87396 128.206 7.87398 126.054 7.99434C124.867 8.06313 122.419 8.23507 120.62 8.38983C116.845 8.69935 116.727 8.69935 117.737 8.44142L118.474 8.25226L117.612 8.34685C117.133 8.40704 116.292 8.44142 115.732 8.44142C115.171 8.44142 114.751 8.44142 114.81 8.5274C114.48 8.66721 114.129 8.73143 113.778 8.71655C113.151 8.76813 112.104 8.78533 111.433 8.76813C110.763 8.75094 109.583 8.70795 108.794 8.69076C108.311 8.71517 107.827 8.66018 107.356 8.5274C107.408 8.36404 107.695 8.32104 109.62 8.14049L109.627 8.1491ZM101.517 4.33171C102.254 4.33171 102.409 4.33172 102.114 4.4263C101.581 4.56907 101.026 4.56907 100.492 4.4263C100.831 4.32013 101.183 4.28517 101.532 4.3231L101.517 4.33171ZM101.657 5.4924C101.407 5.4924 101.355 5.49241 101.532 5.41503C101.667 5.36917 101.81 5.36917 101.945 5.41503C102.033 5.45802 101.901 5.4924 101.672 5.4838L101.657 5.4924ZM100.795 5.62997C100.544 5.62997 100.492 5.62997 100.669 5.54399C100.804 5.49814 100.947 5.49814 101.082 5.54399C101.163 5.59558 101.038 5.62996 100.809 5.62136L100.795 5.62997ZM99.8361 9.17223C102.498 9.10345 104.695 9.09485 104.909 9.17223C106.237 9.26854 107.57 9.21959 108.89 9.02605C108.691 8.94867 109.155 8.90569 110.202 8.92288L111.817 8.92288L110.519 9.01747C110.157 9.00667 109.795 9.05 109.443 9.14643C109.561 9.14643 109.273 9.23243 108.794 9.29261C107.754 9.43017 100.514 9.42158 99.2979 9.29261C98.509 9.20663 98.5459 9.19801 99.8509 9.16362L99.8361 9.17223ZM98.7155 4.7358C98.8937 4.70148 99.0755 4.70148 99.2537 4.7358C99.4012 4.7358 99.2537 4.8046 98.9809 4.8046C98.7081 4.8046 98.5754 4.76159 98.7302 4.7272L98.7155 4.7358ZM96.5553 10.0836C93.9158 10.2985 93.3481 10.3071 93.7905 10.0836C94.0338 9.98041 93.8937 9.96321 93.2523 10.0234C92.7804 10.075 92.2422 10.1266 92.0653 10.1524C91.6266 10.223 91.1797 10.1608 90.7677 9.97181C90.7677 9.80845 93.879 9.71388 96.3857 9.80845L98.6491 9.89443L96.5553 10.0836ZM95.5157 10.9434L94.5425 10.8488L95.6632 10.8488C96.0858 10.8068 96.5115 10.8445 96.9239 10.9605C97.0787 11.0723 97.0198 11.0723 95.5305 10.9262L95.5157 10.9434ZM96.0687 4.92495C96.4791 4.81326 96.9014 4.77272 97.322 4.8046C98.2068 4.8046 98.3321 4.80458 97.9045 4.92495C97.123 5.1141 95.9433 5.1141 96.0834 4.95074L96.0687 4.92495ZM95.8991 6.57573C96.8207 6.57573 96.8576 6.57571 96.2825 6.69608C95.324 6.84224 94.8743 6.84224 94.8743 6.69608C95.2194 6.56775 95.5855 6.53538 95.9433 6.60152L95.8991 6.57573ZM94.6089 4.85618C94.7871 4.82186 94.9689 4.82186 95.1471 4.85618C95.3019 4.85618 95.1471 4.92495 94.8817 4.92495C94.6162 4.92495 94.4688 4.89915 94.6236 4.86476L94.6089 4.85618ZM94.5425 6.83365C94.1571 6.955 93.7616 7.02707 93.3629 7.04859L92.397 7.13457L93.009 6.91963C93.6873 6.70468 94.9111 6.63591 94.5572 6.84225L94.5425 6.83365ZM86.1744 3.44614C86.6616 3.33805 87.1618 3.33805 87.649 3.44614L88.9171 3.5751L87.4425 3.5751C86.3956 3.5837 86.027 3.58372 86.1892 3.45475L86.1744 3.44614ZM86.8011 4.12537C87.0757 4.22877 87.3608 4.28947 87.649 4.30592C88.0397 4.30592 87.8628 4.36611 87.2214 4.36611C85.9533 4.36611 85.3855 4.29732 85.3855 4.12537C85.3855 3.95342 86.5431 3.97062 86.8159 4.13398L86.8011 4.12537ZM72.9698 4.27152C73.2513 4.15719 73.5498 4.11042 73.8472 4.13398C74.2674 4.13398 74.5845 4.06518 74.5845 3.9792C74.5845 3.72987 79.856 3.97922 81.5222 4.26294C82.3316 4.41646 83.15 4.49694 83.97 4.50367C85.617 4.4992 87.2632 4.59103 88.9023 4.7788C89.0056 4.7788 90.2147 4.84758 91.6008 4.84758C93.3702 4.84758 93.8126 4.84756 93.1491 4.94214C92.2275 5.03671 92.2127 5.04532 92.9279 5.06252C93.29 5.06823 93.6507 5.11722 94.0043 5.20869C94.255 5.31186 94.196 5.36343 93.7168 5.4838C92.9859 5.6438 92.2358 5.6438 91.5049 5.4838C91.151 5.42361 89.9788 5.37204 88.9171 5.36345C87.7616 5.34898 86.6075 5.26575 85.4593 5.11411C83.9847 4.88197 83.9847 4.87336 84.722 4.78738C85.4593 4.70141 82.1637 4.58104 80.7628 4.64982C80.4311 4.64982 79.0376 4.55525 77.6589 4.40908C76.7054 4.23834 75.7385 4.1922 74.7762 4.27152C74.2895 4.44347 72.815 4.44348 72.9846 4.28013L72.9698 4.27152ZM87.5015 10.0664C89.0646 9.86005 91.2838 10.0664 90.5465 10.3845C90.4102 10.4476 90.2655 10.4826 90.1189 10.4877C90.0599 10.4877 89.2857 10.4017 88.3936 10.3157C86.9559 10.1867 86.8675 10.161 87.5163 10.075L87.5015 10.0664ZM87.1108 5.8965C86.8822 5.81052 87.2435 5.76752 88.2978 5.77612C89.3521 5.78472 89.6691 5.81912 89.3742 5.8965C88.622 6.06564 87.8492 6.06856 87.096 5.90511L87.1108 5.8965ZM85.9164 6.17163C85.4618 6.34862 84.9702 6.34862 84.5156 6.17163C84.2796 6.07706 84.4418 6.03407 85.1201 6.03407C85.7026 6.04266 86.0122 6.09424 85.9311 6.16302L85.9164 6.17163ZM82.4143 5.61276C81.962 5.66679 81.5051 5.62604 81.0651 5.49241C81.7781 5.3252 82.5124 5.3252 83.2253 5.49241C83.6382 5.57838 83.4097 5.61277 82.4291 5.62136L82.4143 5.61276ZM76.7447 6.47253C77.2504 6.45027 77.7568 6.48772 78.2561 6.58431C78.6468 6.74766 77.5188 6.74766 76.3171 6.58431C75.6461 6.49833 75.683 6.48973 76.7742 6.47253L76.7447 6.47253ZM74.6951 4.95935C74.614 4.87337 75.1227 4.82179 76.0738 4.82179C76.6246 4.78777 77.1769 4.83399 77.7179 4.95935C77.8064 5.04533 77.2903 5.09692 76.3392 5.09692C75.7933 5.12863 75.2461 5.08243 74.7098 4.95935L74.6951 4.95935ZM79.2293 5.32044C78.3962 5.32044 78.0349 5.32044 78.4183 5.26886C78.9217 5.23444 79.4263 5.23444 79.9297 5.26886C80.3868 5.30325 80.0772 5.30325 79.244 5.30325L79.2293 5.32044ZM79.6643 5.59557C79.0671 5.59557 78.8533 5.59557 79.1777 5.53539C79.536 5.50495 79.8958 5.50495 80.2541 5.53539C80.5343 5.56978 80.2689 5.59557 79.679 5.59557L79.6643 5.59557ZM76.8553 7.39249C78.1086 7.22914 80.9029 7.23774 80.7407 7.39249C79.9296 7.51882 79.1103 7.55912 78.293 7.51287C76.494 7.51288 76.1844 7.48707 76.87 7.39249L76.8553 7.39249ZM72.321 4.28013C72.1367 4.46928 71.9376 4.45208 71.451 4.20275C70.9644 3.95341 71.0455 3.9964 71.569 4.06518C71.8639 4.10817 72.1883 4.14256 72.3063 4.14256C72.4243 4.14256 72.4095 4.20275 72.3505 4.28013L72.321 4.28013ZM71.0898 3.50633C71.3765 3.47183 71.6656 3.47183 71.9524 3.50633C72.1588 3.50633 71.9524 3.56653 71.4584 3.56653C70.9644 3.56653 70.8317 3.54072 71.1045 3.50633L71.0898 3.50633ZM69.1507 3.91903C69.2882 3.87429 69.4335 3.87429 69.571 3.91903C69.6373 3.96202 69.512 3.9964 69.2835 3.98781C69.0549 3.97921 68.9959 3.96202 69.1655 3.91903L69.1507 3.91903ZM67.4108 3.78147C67.6246 3.78147 67.455 3.84163 67.0348 3.84163C66.6145 3.84163 66.4523 3.84165 66.6588 3.78147C66.9134 3.74571 67.1709 3.74571 67.4255 3.78147L67.4108 3.78147ZM66.7104 3.05926C66.8947 3.05926 67.0348 3.11943 67.0348 3.1968C67.0348 3.27418 66.8947 3.33437 66.7104 3.33437C66.5261 3.33437 66.3933 3.27418 66.3933 3.1968C66.3933 3.11943 66.5482 3.05926 66.7251 3.05926L66.7104 3.05926ZM64.9188 3.33437C65.0936 3.32513 65.2672 3.37276 65.4201 3.47194C65.5897 3.64389 65.3022 3.64389 64.8819 3.47194C64.6165 3.35157 64.6165 3.33437 64.9335 3.33437L64.9188 3.33437ZM68.3324 5.05391C68.1481 5.05391 67.5066 5.05393 66.8947 5.1485C66.4778 5.22935 66.0511 5.20886 65.6413 5.08831C65.476 4.98543 65.2904 4.93501 65.1031 4.94214C64.4007 4.79121 63.7343 4.46574 63.1493 3.98781C63.8192 3.79193 64.5156 3.75103 65.1989 3.86742C65.5676 3.962 65.5381 3.9792 64.9851 4.00499C64.6312 4.00499 64.9851 4.08239 65.7224 4.13398C66.4597 4.18556 68.2365 4.32312 69.6005 4.45209C70.9644 4.58105 72.4759 4.66703 72.9698 4.66703C73.6113 4.66703 73.9209 4.73579 74.0168 4.89055C74.1126 5.04531 74.0168 5.09692 73.4048 5.01954C73.1077 4.94593 72.7989 4.96973 72.5127 5.08831C72.3948 5.20868 71.8344 5.22588 70.4926 5.1485C69.5046 5.10551 68.5241 5.07113 68.3471 5.07113L68.3324 5.05391ZM70.4852 6.66168C71.6132 6.66168 72.5791 6.76488 72.6233 6.79067C71.3698 6.86842 70.1131 6.83968 68.8632 6.70469C68.6125 6.6445 69.2392 6.63591 70.5 6.67889L70.4852 6.66168ZM69.571 5.65577C70.0031 5.62542 70.4365 5.62542 70.8686 5.65577C71.193 5.65577 70.8686 5.70735 70.1313 5.70735C69.394 5.70735 69.2024 5.70734 69.5857 5.67295L69.571 5.65577ZM65.4128 7.48708C68.6936 7.33233 71.3994 7.35811 71.2225 7.53867C70.6499 7.67804 70.0604 7.69552 69.4825 7.59025C68.3914 7.53007 67.89 7.54727 67.89 7.65044C67.89 7.75361 66.8283 7.8052 64.5501 7.65044C63.282 7.60745 63.2894 7.60744 65.4275 7.50427L65.4128 7.48708ZM68.8485 7.7794C68.5978 7.7794 68.5462 7.77941 68.7158 7.70203C68.8506 7.65617 68.9938 7.65617 69.1286 7.70203C69.2171 7.77081 69.0918 7.80519 68.8632 7.79659L68.8485 7.7794ZM58.0621 7.12597C58.2464 7.03139 58.4013 7.00559 58.4013 7.06578C58.4013 7.12596 58.5119 7.06579 58.6298 6.94542C58.8018 6.81412 58.9996 6.73577 59.2046 6.71773C59.4096 6.69969 59.6151 6.74254 59.8021 6.84226C59.9961 6.93425 60.2095 6.95522 60.414 6.90242C60.7205 6.85147 61.0327 6.9243 61.2988 7.10878C61.6969 7.39251 61.6969 7.3925 60.2813 7.3925C59.4998 7.3925 58.733 7.3925 58.5782 7.45268C58.3916 7.50425 58.1972 7.50425 58.0105 7.45268C57.7967 7.34091 57.8114 7.28075 58.0769 7.14318L58.0621 7.12597ZM60.5541 8.07172C60.5541 8.1405 60.8269 8.13191 61.1808 8.07172C62.1615 7.95994 63.1492 7.95994 64.1299 8.07172C66.8058 8.2472 69.4896 8.15228 72.1515 7.78801C73.4022 7.54097 74.6809 7.55844 75.9263 7.83959C75.1827 8.02914 74.424 8.12712 73.6629 8.13191C72.321 8.22649 70.9349 8.32964 70.5737 8.35544C70.2124 8.38123 67.7942 8.42422 65.1768 8.44142C62.5521 8.44142 60.2371 8.53599 60.0159 8.60478C59.4788 8.69508 58.9348 8.71528 58.3939 8.66497L57.2069 8.58759L58.0695 8.51021C58.5487 8.45863 57.8262 8.44142 56.477 8.46721C55.7228 8.54865 54.963 8.52557 54.2135 8.39844C54.7075 8.05453 60.5541 7.79659 60.5541 8.07172ZM73.1541 12.276C72.9035 12.276 72.8519 12.276 73.0288 12.1986C73.1636 12.1528 73.3069 12.1528 73.4417 12.1986C73.5228 12.2502 73.3975 12.2846 73.1689 12.276L73.1541 12.276ZM72.9403 11.5796C71.9598 11.5796 71.7386 11.5796 71.9892 11.4678C72.2399 11.3561 72.2473 11.3303 71.9155 11.399C71.7497 11.4347 71.5823 11.4606 71.4142 11.4764C71.3626 11.4764 71.3699 11.528 71.4142 11.6054C70.8513 11.7363 70.2747 11.7682 69.7037 11.7C69.0906 11.7204 68.4771 11.6887 67.8679 11.6054C67.8679 11.5022 71.9745 11.2013 73.3311 11.2013C74.9384 11.2013 74.5624 11.5366 72.9551 11.5796L72.9403 11.5796ZM67.8458 11.2443C67.9806 11.1984 68.1238 11.1984 68.2586 11.2443C68.3324 11.2873 68.207 11.3217 67.9785 11.3131C67.7499 11.3045 67.6909 11.3217 67.8605 11.2443L67.8458 11.2443ZM67.5214 10.2383C67.2443 10.2677 66.9651 10.2266 66.703 10.118C66.5482 9.96322 66.8947 9.96322 67.6762 10.118C68.1997 10.2212 68.1997 10.2297 67.5361 10.2383L67.5214 10.2383ZM62.3236 11.5022C62.2351 11.5022 61.0997 11.5022 59.7947 11.5022L57.4207 11.4334L60.0085 11.3388C63.5032 11.2099 65.6929 11.2185 65.833 11.3388C65.3028 11.4709 64.7587 11.5115 64.2184 11.4592C63.2747 11.4678 62.4268 11.485 62.3383 11.5022L62.3236 11.5022ZM61.6232 11.9751C60.4951 11.9751 60.038 11.9751 60.5983 11.9235C61.1587 11.8719 62.0729 11.9235 62.648 11.9235C63.223 11.9235 62.7659 11.9751 61.6379 11.9751L61.6232 11.9751ZM58.0253 9.06046C57.0772 9.2392 56.1135 9.27676 55.1573 9.17223C54.5306 9.08625 54.4937 9.06906 54.9361 9.04327C55.2384 9.04327 55.6733 8.99169 55.9093 8.96589C57.0061 8.82885 58.1099 8.78288 59.2123 8.82832C58.829 8.95066 58.4364 9.02841 58.04 9.06046L58.0253 9.06046ZM60.4214 9.26679C61.0702 9.2238 61.3577 9.26682 61.1587 9.3184C60.7406 9.40832 60.3155 9.44577 59.8906 9.43015C58.7699 9.42155 58.969 9.35277 60.4361 9.26679L60.4214 9.26679ZM55.9978 9.83425C55.9388 9.83425 55.5923 9.77408 55.2605 9.71389C54.7002 9.62791 54.7518 9.61071 55.6955 9.59351C56.4327 9.59351 56.6834 9.59352 56.4327 9.71389C56.3048 9.77295 56.1711 9.81336 56.0346 9.83425L55.9978 9.83425ZM55.2605 12.1127C54.3094 12.1127 53.9481 12.1126 54.4568 12.0611C55.0315 12.0266 55.6074 12.0266 56.1821 12.0611C56.6392 12.0868 56.2189 12.1127 55.2752 12.1127L55.2605 12.1127ZM56.8751 11.442C57.1184 11.3991 57.3101 11.442 57.3101 11.4936C57.3101 11.5452 57.1184 11.614 56.8751 11.614C56.731 11.6289 56.5859 11.6114 56.4475 11.5624C56.5797 11.4914 56.7224 11.4506 56.8677 11.442L56.8751 11.442ZM57.6124 11.9923C57.7955 11.999 57.9768 12.0367 58.1506 12.1041C57.9752 12.1582 57.793 12.1757 57.6124 12.1556C57.3101 12.1556 57.0668 12.1041 57.0742 12.0439C57.0815 11.9837 57.347 11.9493 57.6492 11.9923L57.6124 11.9923ZM64.8967 10.161C65.1416 10.1286 65.389 10.1286 65.6339 10.161C65.8404 10.161 65.6708 10.2212 65.2506 10.2212C64.8303 10.2212 64.7271 10.1954 64.9335 10.161L64.8967 10.161ZM53.4615 11.2443C54.1988 11.2443 54.2799 11.2443 53.8375 11.3475C53.1003 11.4936 52.798 11.5022 52.6653 11.3475C52.5326 11.1927 52.9897 11.2443 53.4984 11.2443L53.4615 11.2443ZM52.1639 9.88583C52.5247 9.8554 52.8869 9.8554 53.2477 9.88583C53.5131 9.88583 53.2477 9.93744 52.6505 9.93744C52.0533 9.93744 51.8764 9.92022 52.2008 9.88583L52.1639 9.88583ZM53.4468 12.405C54.4274 12.405 57.2585 12.3448 59.7284 12.2502C63.3042 12.1212 64.3437 12.1126 64.8008 12.2502C65.2579 12.3878 65.1105 12.4136 63.3263 12.3964C61.5421 12.3792 61.2619 12.3964 61.2029 12.6027C61.1439 12.8091 61.2988 12.8348 61.9402 12.8434C62.5816 12.852 62.6775 12.8435 62.3383 12.9724C61.0811 13.1273 59.8133 13.1273 58.5561 12.9724C57.8748 12.8991 57.1906 12.8675 56.5065 12.8778C54.8329 12.8778 51.3013 12.6199 51.5225 12.4824C51.6405 12.4308 52.4957 12.405 53.4836 12.405L53.4468 12.405ZM61.4315 50.2779C60.8449 50.2801 60.2621 50.1698 59.7063 49.9512C59.0943 49.6761 59.7063 49.7191 60.8933 50.0286C61.461 50.1748 61.7043 50.2865 61.4683 50.2779L61.4315 50.2779ZM48.0204 7.71921C48.1552 7.67336 48.2985 7.67336 48.4333 7.71921C48.507 7.7622 48.3817 7.79661 48.1531 7.78801C47.9246 7.77941 47.8361 7.7622 48.0204 7.71921ZM45.6906 7.61604C45.9782 7.3925 47.6297 7.32372 47.6297 7.53006C47.6297 7.59025 47.3274 7.68483 46.9588 7.72782C46.5901 7.77081 46.0888 7.8138 45.8528 7.8138C45.4768 7.8138 45.4473 7.7794 45.6759 7.61604L45.6906 7.61604ZM31.4391 10.3243C31.0631 10.6166 28.9914 10.5135 27.0155 10.1008L26.1528 9.92884L26.8901 9.86004C28.4676 9.82854 30.0454 9.9003 31.6161 10.075C31.6603 10.1008 31.5792 10.2126 31.4244 10.3243L31.4391 10.3243ZM34.602 10.4447C33.9011 10.6709 33.1662 10.7149 32.4492 10.5737C32.0216 10.5307 31.8667 10.4447 31.911 10.2899C31.9552 10.1352 32.2501 10.0578 33.4592 10.0578C35.2656 10.0578 35.5605 10.161 34.5873 10.4619L34.602 10.4447ZM39.0994 10.6682C37.5585 10.6682 36.1503 10.7112 35.9144 10.7542C35.4204 10.8488 35.4351 10.6338 35.9144 10.3501C36.3894 10.1667 36.889 10.0851 37.3889 10.1094C37.9787 10.1094 38.222 10.0578 37.9345 10.0234C37.529 9.98041 37.4848 9.93743 37.7207 9.84285C37.9566 9.74828 37.8903 9.7225 37.4921 9.7225C36.7549 9.7225 37.2341 9.43017 38.0598 9.36999C38.2965 9.3803 38.5311 9.31489 38.7381 9.18084C39.4505 9.03009 40.1753 8.97527 40.8983 9.01748C42.3287 9.01748 42.7489 8.97448 42.2328 8.9057C41.4955 8.81973 41.4955 8.81113 42.019 8.72516C42.3139 8.68217 43.2134 8.62197 44.017 8.60478C45.2335 8.60478 45.4178 8.60477 45.1082 8.73374C44.8841 8.8343 44.6476 8.89236 44.4078 8.9057C44.1055 8.9057 44.1055 8.90569 44.4078 9.05185C44.7101 9.19801 44.6658 9.21521 44.4594 9.26679C44.253 9.31838 44.2382 9.37857 44.2972 9.43876C44.3562 9.49894 44.135 9.59351 43.8106 9.64509C43.1323 9.75686 42.6383 9.98042 42.7784 10.118C42.9185 10.2555 44.5479 10.1954 46.6049 10.1782C48.9863 10.1782 49.9521 10.1782 49.2591 10.2556C47.7329 10.4103 43.3609 10.6768 42.572 10.6682L39.0994 10.6682ZM48.308 47.7416C48.5808 47.905 48.1605 47.8792 46.7376 47.6642C45.6317 47.4923 44.7543 47.1828 45.381 47.1828C46.3623 47.2839 47.3358 47.4707 48.2932 47.7416L48.308 47.7416ZM47.3569 11.7945C47.6782 11.7602 48.0014 11.7602 48.3227 11.7945C48.5955 11.7945 48.3743 11.8547 47.8435 11.8547C47.3126 11.8547 47.0767 11.8289 47.3421 11.7945L47.3569 11.7945ZM44.2824 46.9592C44.4199 46.9145 44.5652 46.9145 44.7027 46.9592C44.769 46.9592 44.6437 47.0366 44.4152 47.028C44.1866 47.0194 44.0981 47.0022 44.2677 46.9592L44.2824 46.9592ZM49.0747 48.6787C46.1256 48.1457 44.5479 47.819 44.6511 47.819C44.7543 47.819 49.9816 48.5842 50.3945 48.7389C50.8073 48.8937 50.0627 48.8249 49.06 48.653L49.0747 48.6787ZM48.5955 12.9724C48.4481 12.8693 48.5955 12.8521 49.1042 12.9122C49.6129 12.9724 50.2691 12.9982 50.7926 12.9982C51.316 12.9982 51.6994 13.0498 51.6183 13.1358C50.6055 13.3196 49.571 13.2552 48.5808 12.9466L48.5955 12.9724ZM51.3603 49.0828C51.1997 49.0898 51.0408 49.042 50.9032 48.9453C50.8368 48.8765 50.9032 48.8077 51.0949 48.8077C51.2551 48.8049 51.413 48.8524 51.552 48.9453C51.611 49.0227 51.5299 49.0828 51.3455 49.0828L51.3603 49.0828ZM52.6358 49.0828C52.4981 49.1796 52.3393 49.2274 52.1787 49.2204C51.9943 49.2204 51.9133 49.1602 51.987 49.0828C52.1246 48.9861 52.2835 48.9383 52.4441 48.9453C52.6063 48.9453 52.6948 49.0055 52.621 49.0828L52.6358 49.0828ZM63.5032 51.7309C61.8738 51.3612 62.0287 51.3268 64.5207 51.5504C65.1044 51.5358 65.6858 51.6405 66.2385 51.8599C66.1206 52.1092 64.9778 52.0577 63.5032 51.7309ZM67.5804 51.3784C67.2869 51.3957 66.9927 51.3755 66.703 51.3183C65.9505 51.2394 65.195 51.205 64.4396 51.2151C63.5265 51.2761 62.6106 51.1864 61.719 50.9485C61.2907 50.7977 60.8466 50.7167 60.3993 50.7078C59.4851 50.7078 58.9247 50.5874 59.0943 50.4241C59.2639 50.2607 58.6446 50.2521 57.7082 50.3037C56.9437 50.2307 56.1848 50.0928 55.4374 49.891C52.3851 49.1344 52.7464 48.9625 56.0125 49.6159C58.0575 50.0899 60.1222 50.44 62.1982 50.6648C62.7301 50.6905 63.2598 50.7595 63.7834 50.8712C64.4281 50.9809 65.0783 51.0412 65.7298 51.0517C66.433 51.0616 67.1349 51.1248 67.831 51.2409C68.3397 51.3612 68.325 51.3698 67.5951 51.3784L67.5804 51.3784ZM69.1139 50.8626C69.1139 51.0173 68.4651 50.9915 65.199 50.7078C62.0434 50.4327 61.1439 50.2607 63.5032 50.3811C64.3953 50.4327 65.4422 50.4585 65.8404 50.4499C66.9417 50.4354 68.0406 50.5739 69.1139 50.8626ZM66.644 12.3534C66.3565 12.2932 66.1574 12.3534 66.1574 12.405C66.1574 12.4566 66.4228 12.5683 66.7546 12.6027C67.0864 12.6371 66.7546 12.6629 66.0173 12.6715C65.0441 12.6715 64.8451 12.6715 65.2137 12.5597C65.5823 12.448 65.7003 12.3706 65.7003 12.2932C65.7003 12.2158 67.6983 12.1127 69.5489 12.2932C70.137 12.4085 70.7376 12.4085 71.3257 12.2932C71.4267 12.2355 71.5377 12.2055 71.6501 12.2055C71.7626 12.2055 71.8735 12.2355 71.9745 12.2932C72.5348 12.5769 68.2808 12.6543 66.6588 12.3534L66.644 12.3534ZM72.8887 51.3784C72.2989 51.3182 71.3036 51.2667 70.6769 51.2581C70.0502 51.2495 69.5415 51.1893 69.5415 51.0947C69.5415 51.0001 70.006 50.9657 71.1119 51.0345C73.9136 51.1893 74.7245 51.2753 74.7245 51.3956C74.7245 51.516 74.4665 51.5332 72.9035 51.3784L72.8887 51.3784ZM75.2259 11.2099C74.7024 11.1239 74.7098 11.1153 75.4397 10.9778C76.948 10.8302 78.4635 10.813 79.9739 10.9262L80.7112 10.9262L79.8486 11.0379C78.3175 11.2135 76.7782 11.2709 75.2406 11.2099L75.2259 11.2099ZM79.362 52.0319C78.8902 52.0319 78.7206 52.0319 78.9934 51.9631C79.2803 51.9326 79.569 51.9326 79.856 51.9631C80.0772 52.0061 79.856 52.0319 79.3768 52.0319L79.362 52.0319ZM78.2856 51.645C77.8359 51.5676 78.0791 51.5504 79.1187 51.5848C79.6561 51.5936 80.1926 51.6366 80.726 51.7137C79.9182 51.8107 79.1031 51.7876 78.3003 51.645L78.2856 51.645ZM81.0946 50.02C79.5586 50.1902 78.0102 50.1324 76.4866 49.848C76.0295 49.4955 76.5972 49.3666 78.9418 49.2892C80.7776 49.229 81.1536 49.2376 80.7702 49.358C80.4753 49.444 80.0845 49.5213 79.9076 49.5471C79.3178 49.6073 79.6643 49.8223 80.4974 49.9082C80.9619 49.9512 81.1978 50.0114 81.1094 50.0114L81.0946 50.02ZM82.3922 50.4069C82.0309 50.4069 81.913 50.4069 82.1268 50.3381C82.3393 50.2987 82.5558 50.2987 82.7682 50.3381C82.9304 50.3811 82.7609 50.4069 82.407 50.4069L82.3922 50.4069ZM86.1376 50.4069C85.5334 50.413 84.9296 50.367 84.3312 50.2693C84.0068 50.1834 84.1543 50.1576 84.9211 50.1748C85.3104 50.2006 85.7009 50.1775 86.086 50.106C86.2749 50.0309 86.4748 50.0014 86.6738 50.0191C86.8728 50.0369 87.0666 50.1015 87.2435 50.2091C87.4942 50.4069 87.3541 50.4327 86.1523 50.4241L86.1376 50.4069ZM99.5486 50.3037C99.0178 50.3037 98.4353 50.4069 98.2584 50.4499C97.6907 50.553 94.2845 50.2607 94.6162 50.1318C94.8227 50.0458 94.7268 50.0114 94.2918 50.0114C93.8568 50.0114 93.702 50.0114 93.82 50.2349C93.9379 50.4585 93.9158 50.4499 93.5693 50.2349C92.8043 50.0179 92.0249 49.877 91.2395 49.8137C88.2019 49.4611 87.4794 49.4268 87.0297 49.5729C86.3025 49.7488 85.556 49.7894 84.8179 49.6933C84.1194 49.6156 83.4152 49.6474 82.724 49.7879C82.6134 49.8308 82.5249 49.7878 82.5249 49.7363C82.5249 49.6847 82.7461 49.5729 83.0115 49.5213C83.417 49.4525 83.4465 49.4181 83.1737 49.3064C82.9009 49.1946 83.417 49.1688 84.7073 49.1688C85.3666 49.1486 86.0264 49.1744 86.6832 49.2462C86.7569 49.2892 87.9144 49.3408 89.2562 49.358C91.8113 49.3727 94.3628 49.5823 96.8944 49.9856C98.4574 50.2607 99.4012 50.3295 98.6123 50.1146C98.2436 50.02 98.2731 50.0028 98.8261 50.0028C99.2232 50.0089 99.6196 50.0434 100.013 50.106C100.463 50.2349 100.404 50.2521 99.5634 50.3209L99.5486 50.3037ZM101.171 50.3897C100.817 50.3897 100.691 50.3897 100.905 50.3209C101.12 50.2864 101.339 50.2864 101.554 50.3209C101.709 50.3811 101.539 50.4069 101.185 50.4069L101.171 50.3897ZM101.797 50.1318C101.547 50.1318 101.495 50.1318 101.672 50.0458C101.807 50.0054 101.949 50.0054 102.085 50.0458C102.166 50.1232 102.041 50.149 101.842 50.149L101.797 50.1318ZM100.699 10.952C99.6223 10.9949 99.0841 10.952 99.4012 10.952C100.472 10.827 101.549 10.7982 102.623 10.866C102.579 10.866 101.724 10.9262 100.713 10.9691L100.699 10.952ZM103.346 10.8144C103.561 10.7751 103.779 10.7751 103.994 10.8144C104.142 10.8144 103.994 10.8746 103.611 10.8746C103.228 10.8746 103.154 10.866 103.36 10.8316L103.346 10.8144ZM106.457 50.5101C104.481 50.5101 103.434 50.4155 103.434 50.2693C103.434 50.1232 105.498 50.1318 106.781 50.3381L107.858 50.5101L106.457 50.5101ZM133.434 52.6853C134.28 52.6053 135.131 52.6399 135.97 52.7885C137.069 52.9174 137.968 53.0464 137.968 53.0722C137.106 53.1311 136.242 53.1311 135.38 53.0722C135.203 53.0722 134.569 52.9862 133.972 52.9346C133.014 52.84 132.962 52.8229 133.449 52.7025L133.434 52.6853ZM126.061 50.811C126.255 50.7966 126.449 50.8441 126.621 50.9485C126.695 51.0259 126.562 51.0861 126.326 51.0861C126.13 51.0991 125.934 51.0517 125.759 50.9485C125.715 50.8712 125.855 50.8282 126.091 50.8282L126.061 50.811ZM127.078 51.8771C127.45 51.9879 127.803 52.1679 128.125 52.4102L128.708 52.8486L128.155 52.8486C127.845 52.8486 127.595 52.7971 127.595 52.7369C127.046 52.5855 126.484 52.5162 125.921 52.5305C123.134 52.3758 122.611 52.2038 124.115 51.9201C125.107 51.7545 126.114 51.7458 127.108 51.8943L127.078 51.8771ZM121.18 50.596C121.763 50.639 122.448 50.682 122.706 50.682C123.009 50.6905 123.308 50.7573 123.591 50.8798C124.004 51.0775 124.004 51.0775 123.591 51.0689C122.485 51.0066 121.384 50.8544 120.296 50.6132C120.273 50.5702 120.657 50.5616 121.232 50.6132L121.18 50.596ZM123.038 51.387C123.038 51.5246 122.205 51.5074 121.637 51.387C121.328 51.3097 121.468 51.2753 122.124 51.2925C122.449 51.2551 122.777 51.2931 123.09 51.4042L123.038 51.387ZM118.998 50.02C119.414 49.9673 119.834 50.0081 120.237 50.1404C120.237 50.2091 120.163 50.2607 120.074 50.2521C119.986 50.2435 119.426 50.1919 118.836 50.1404L117.752 50.0458L118.998 50.02ZM116.786 50.7508C117.479 50.8196 117.774 50.8024 117.922 50.6648C118.069 50.5273 118.157 50.5101 118.379 50.6648C118.703 50.8425 119.048 50.9614 119.403 51.0173L120.141 51.1721L119.536 51.1721C117.944 51.1721 114.243 50.9485 113.107 50.8196C112.606 50.7473 112.101 50.7186 111.596 50.7336C111.256 50.7542 110.915 50.7341 110.578 50.6734C109.671 50.5617 115.334 50.6132 116.808 50.768L116.786 50.7508ZM110.438 52.2812C110.084 52.2812 109.966 52.2812 110.173 52.2124C110.388 52.1773 110.606 52.1773 110.822 52.2124C110.991 52.2726 110.822 52.307 110.46 52.2984L110.438 52.2812ZM113.387 53.5193C113.006 53.565 112.621 53.5271 112.252 53.4075C112.252 53.184 112.539 53.1754 113.549 53.3473L114.515 53.5107L113.387 53.5193ZM133.014 54.3103C131.693 54.3792 130.371 54.2374 129.084 53.889C128.695 53.7757 128.297 53.7066 127.897 53.6826C127.609 53.6826 127.646 53.7256 128.03 53.8202C128.413 53.9148 128.501 53.9835 128.442 54.0179C126.257 54.0141 124.074 53.8677 121.903 53.5794C121.424 53.4677 120.598 53.3215 120.067 53.2441C119.536 53.1668 118.556 53.0206 117.892 52.9174C117.228 52.8143 116.506 52.7283 116.277 52.7283C115.688 52.7283 117.317 53.1066 118.991 53.3387L120.391 53.5279L118.917 53.4677C118.084 53.4677 116.948 53.4075 116.388 53.4075C115.592 53.4075 115.393 53.3645 115.488 53.2097C115.584 53.055 115.4 53.0292 114.434 53.0894C113.992 53.1762 113.539 53.1497 113.107 53.012C112.876 52.8911 112.623 52.8351 112.37 52.8486C112.029 52.8458 111.688 52.8084 111.352 52.7369C112.465 52.6217 113.584 52.5958 114.7 52.6595C118.769 52.6595 124.122 53.012 125.162 53.2613C125.553 53.3471 125.952 53.3702 126.349 53.3301C128.075 53.1532 129.814 53.2748 131.51 53.6912C132.549 53.932 133.721 54.1641 134.164 54.2243C134.628 54.3102 134.282 54.3103 133.014 54.3103ZM138.956 54.1813C138.595 54.1813 138.064 54.1813 137.769 54.1297C137.474 54.0781 136.464 54.0523 135.557 54.0007C133.95 53.9234 133.891 53.9062 134.341 53.7084C134.79 53.5107 134.975 53.5193 136.464 53.7084C137.371 53.8374 138.455 53.9921 138.868 54.0523C139.568 54.1899 139.575 54.1899 138.956 54.1899L138.956 54.1813ZM138.956 53.3215C137.946 53.0894 138.536 53.055 139.944 53.2613C140.475 53.3387 141.89 53.4505 143.085 53.5021C143.99 53.4894 144.893 53.599 145.776 53.8288L146.292 54.0609L145.555 54.0609C145.142 54.0609 144.906 54.0007 144.98 53.9234C145.053 53.846 144.862 53.7342 144.434 53.76C143.726 53.8288 139.59 53.5021 138.941 53.3473L138.956 53.3215ZM140.674 54.594C140.423 54.594 140.372 54.551 140.548 54.508C140.684 54.4676 140.826 54.4676 140.961 54.508C141.013 54.594 140.917 54.6198 140.659 54.6198L140.674 54.594Z" fill='#000'/>
</svg>
